<?xml version="1.0" encoding="UTF-8"?>
<svg xmlns="http://www.w3.org/2000/svg" xmlns:xlink="http://www.w3.org/1999/xlink" width="64pt" height="64pt" viewBox="0 0 64 64" version="1.1">
<defs>
<filter id="alpha" filterUnits="objectBoundingBox" x="0%" y="0%" width="100%" height="100%">
  <feColorMatrix type="matrix" in="SourceGraphic" values="0 0 0 0 1 0 0 0 0 1 0 0 0 0 1 0 0 0 1 0"/>
</filter>
<mask id="mask0">
  <g filter="url(#alpha)">
<rect x="0" y="0" width="64" height="64" style="fill:rgb(0%,0%,0%);fill-opacity:0.2;stroke:none;"/>
  </g>
</mask>
<clipPath id="clip1">
  <rect x="0" y="0" width="64" height="64"/>
</clipPath>
<g id="surface5" clip-path="url(#clip1)">
<path style=" stroke:none;fill-rule:nonzero;fill:rgb(0%,0%,0%);fill-opacity:1;" d="M 7.820312 19.34375 C 6.824219 19.359375 5.507812 19.097656 5.242188 18.839844 C 5.042969 18.640625 4.960938 17.933594 4.933594 17.609375 C 4.914062 17.609375 4.90625 17.609375 4.90625 17.609375 C 4.90625 17.609375 4.960938 18.75 5.226562 19.007812 C 5.492188 19.265625 6.808594 19.527344 7.800781 19.515625 C 8.089844 19.511719 8.1875 19.347656 8.183594 19.105469 C 8.140625 19.25 8.03125 19.34375 7.820312 19.34375 Z M 7.820312 19.34375 "/>
</g>
<mask id="mask1">
  <g filter="url(#alpha)">
<rect x="0" y="0" width="64" height="64" style="fill:rgb(0%,0%,0%);fill-opacity:0.101961;stroke:none;"/>
  </g>
</mask>
<clipPath id="clip2">
  <rect x="0" y="0" width="64" height="64"/>
</clipPath>
<g id="surface8" clip-path="url(#clip2)">
<path style=" stroke:none;fill-rule:nonzero;fill:rgb(0%,0%,0%);fill-opacity:1;" d="M 20.320312 38.867188 C 20.320312 37.785156 16.304688 36.910156 11.347656 36.910156 C 6.394531 36.910156 2.378906 37.785156 2.378906 38.867188 C 2.378906 39.945312 6.394531 40.824219 11.347656 40.824219 C 16.304688 40.824219 20.320312 39.945312 20.320312 38.867188 Z M 20.320312 38.867188 "/>
</g>
<mask id="mask2">
  <g filter="url(#alpha)">
<rect x="0" y="0" width="64" height="64" style="fill:rgb(0%,0%,0%);fill-opacity:0.101961;stroke:none;"/>
  </g>
</mask>
<clipPath id="clip3">
  <rect x="0" y="0" width="64" height="64"/>
</clipPath>
<g id="surface11" clip-path="url(#clip3)">
<path style=" stroke:none;fill-rule:nonzero;fill:rgb(0%,0%,0%);fill-opacity:1;" d="M 43.074219 58.066406 C 43.429688 57.5625 44.046875 57.035156 44.046875 57.035156 L 44.496094 52.429688 L 51.007812 52.441406 L 51.457031 56.980469 C 51.980469 57.445312 52.308594 57.804688 52.496094 58.078125 C 52.785156 57.972656 53.101562 57.578125 51.457031 56.121094 L 51.007812 51.292969 L 44.496094 51.570312 L 44.046875 56.175781 C 44.046875 56.175781 42.183594 57.761719 43.074219 58.066406 Z M 43.074219 58.066406 "/>
</g>
<mask id="mask3">
  <g filter="url(#alpha)">
<rect x="0" y="0" width="64" height="64" style="fill:rgb(0%,0%,0%);fill-opacity:0.101961;stroke:none;"/>
  </g>
</mask>
<clipPath id="clip4">
  <rect x="0" y="0" width="64" height="64"/>
</clipPath>
<g id="surface14" clip-path="url(#clip4)">
<path style=" stroke:none;fill-rule:nonzero;fill:rgb(0%,0%,0%);fill-opacity:1;" d="M 62.539062 60.570312 C 61.269531 61.351562 60.132812 61.410156 58.972656 60.113281 C 58.382812 59.460938 57.851562 59.300781 57.453125 59.3125 C 57.886719 58.941406 59.335938 58.027344 61.90625 59.351562 C 62.09375 59.445312 62.261719 59.625 62.390625 59.863281 C 62.496094 60.058594 62.578125 60.304688 62.539062 60.570312 Z M 62.539062 60.570312 "/>
</g>
<mask id="mask4">
  <g filter="url(#alpha)">
<rect x="0" y="0" width="64" height="64" style="fill:rgb(0%,0%,0%);fill-opacity:0.101961;stroke:none;"/>
  </g>
</mask>
<clipPath id="clip5">
  <rect x="0" y="0" width="64" height="64"/>
</clipPath>
<g id="surface17" clip-path="url(#clip5)">
<path style=" stroke:none;fill-rule:nonzero;fill:rgb(0%,0%,0%);fill-opacity:1;" d="M 55.371094 61.113281 L 55.371094 61.667969 L 36.742188 61.667969 L 36.742188 61.222656 L 36.765625 61.113281 Z M 55.371094 61.113281 "/>
</g>
<mask id="mask5">
  <g filter="url(#alpha)">
<rect x="0" y="0" width="64" height="64" style="fill:rgb(0%,0%,0%);fill-opacity:0.4;stroke:none;"/>
  </g>
</mask>
<clipPath id="clip6">
  <rect x="0" y="0" width="64" height="64"/>
</clipPath>
<g id="surface20" clip-path="url(#clip6)">
<path style=" stroke:none;fill-rule:nonzero;fill:rgb(42.352941%,38.823529%,100%);fill-opacity:1;" d="M 15.519531 13.734375 L 16.433594 13.734375 L 16.433594 15.199219 L 15.519531 15.199219 Z M 15.519531 13.734375 "/>
</g>
<mask id="mask6">
  <g filter="url(#alpha)">
<rect x="0" y="0" width="64" height="64" style="fill:rgb(0%,0%,0%);fill-opacity:0.8;stroke:none;"/>
  </g>
</mask>
<clipPath id="clip7">
  <rect x="0" y="0" width="64" height="64"/>
</clipPath>
<g id="surface23" clip-path="url(#clip7)">
<path style=" stroke:none;fill-rule:nonzero;fill:rgb(42.352941%,38.823529%,100%);fill-opacity:1;" d="M 16.835938 13.734375 L 17.75 13.734375 L 17.75 15.199219 L 16.835938 15.199219 Z M 16.835938 13.734375 "/>
</g>
<mask id="mask7">
  <g filter="url(#alpha)">
<rect x="0" y="0" width="64" height="64" style="fill:rgb(0%,0%,0%);fill-opacity:0.4;stroke:none;"/>
  </g>
</mask>
<clipPath id="clip8">
  <rect x="0" y="0" width="64" height="64"/>
</clipPath>
<g id="surface26" clip-path="url(#clip8)">
<path style=" stroke:none;fill-rule:nonzero;fill:rgb(42.352941%,38.823529%,100%);fill-opacity:1;" d="M 15.519531 22.980469 L 16.433594 22.980469 L 16.433594 24.445312 L 15.519531 24.445312 Z M 15.519531 22.980469 "/>
</g>
<mask id="mask8">
  <g filter="url(#alpha)">
<rect x="0" y="0" width="64" height="64" style="fill:rgb(0%,0%,0%);fill-opacity:0.8;stroke:none;"/>
  </g>
</mask>
<clipPath id="clip9">
  <rect x="0" y="0" width="64" height="64"/>
</clipPath>
<g id="surface29" clip-path="url(#clip9)">
<path style=" stroke:none;fill-rule:nonzero;fill:rgb(42.352941%,38.823529%,100%);fill-opacity:1;" d="M 16.835938 22.980469 L 17.75 22.980469 L 17.75 24.445312 L 16.835938 24.445312 Z M 16.835938 22.980469 "/>
</g>
<mask id="mask9">
  <g filter="url(#alpha)">
<rect x="0" y="0" width="64" height="64" style="fill:rgb(0%,0%,0%);fill-opacity:0.4;stroke:none;"/>
  </g>
</mask>
<clipPath id="clip10">
  <rect x="0" y="0" width="64" height="64"/>
</clipPath>
<g id="surface32" clip-path="url(#clip10)">
<path style=" stroke:none;fill-rule:nonzero;fill:rgb(42.352941%,38.823529%,100%);fill-opacity:1;" d="M 15.519531 32.230469 L 16.433594 32.230469 L 16.433594 33.695312 L 15.519531 33.695312 Z M 15.519531 32.230469 "/>
</g>
<mask id="mask10">
  <g filter="url(#alpha)">
<rect x="0" y="0" width="64" height="64" style="fill:rgb(0%,0%,0%);fill-opacity:0.8;stroke:none;"/>
  </g>
</mask>
<clipPath id="clip11">
  <rect x="0" y="0" width="64" height="64"/>
</clipPath>
<g id="surface35" clip-path="url(#clip11)">
<path style=" stroke:none;fill-rule:nonzero;fill:rgb(42.352941%,38.823529%,100%);fill-opacity:1;" d="M 16.835938 32.230469 L 17.75 32.230469 L 17.75 33.695312 L 16.835938 33.695312 Z M 16.835938 32.230469 "/>
</g>
</defs>
<g id="surface1">
<path style=" stroke:none;fill-rule:nonzero;fill:rgb(94.901961%,94.901961%,94.901961%);fill-opacity:1;" d="M 28.890625 19.503906 C 28.890625 30.273438 23.441406 39.003906 16.71875 39.003906 C 10 39.003906 4.550781 30.273438 4.550781 19.503906 C 4.550781 8.730469 10 0 16.71875 0 C 23.441406 0 28.890625 8.730469 28.890625 19.503906 Z M 28.890625 19.503906 "/>
<path style=" stroke:none;fill-rule:nonzero;fill:rgb(18.431373%,18.039216%,25.490196%);fill-opacity:1;" d="M 0 4.683594 C 0 11.777344 2.777344 17.519531 6.210938 17.519531 "/>
<path style=" stroke:none;fill-rule:nonzero;fill:rgb(42.352941%,38.823529%,100%);fill-opacity:1;" d="M 6.210938 17.519531 C 6.210938 10.34375 9.3125 4.539062 13.144531 4.539062 "/>
<path style=" stroke:none;fill-rule:nonzero;fill:rgb(42.352941%,38.823529%,100%);fill-opacity:1;" d="M 2.25 5.324219 C 2.25 12.066406 4.023438 17.519531 6.210938 17.519531 "/>
<path style=" stroke:none;fill-rule:nonzero;fill:rgb(18.431373%,18.039216%,25.490196%);fill-opacity:1;" d="M 6.210938 17.519531 C 6.210938 8.351562 9.792969 0.933594 14.222656 0.933594 "/>
<path style=" stroke:none;fill-rule:nonzero;fill:rgb(65.882353%,65.882353%,65.882353%);fill-opacity:1;" d="M 4.90625 17.609375 C 4.90625 17.609375 5.785156 17.566406 6.050781 17.265625 C 6.316406 16.960938 7.40625 16.597656 7.472656 17.085938 C 7.539062 17.570312 8.796875 19.5 7.800781 19.515625 C 6.808594 19.527344 5.492188 19.265625 5.226562 19.007812 C 4.960938 18.75 4.90625 17.609375 4.90625 17.609375 Z M 4.90625 17.609375 "/>
<use xlink:href="#surface5" mask="url(#mask0)"/>
<path style=" stroke:none;fill-rule:nonzero;fill:rgb(24.705882%,23.921569%,33.72549%);fill-opacity:1;" d="M 22.035156 38.867188 C 22.035156 37.582031 17.25 36.539062 11.347656 36.539062 C 5.449219 36.539062 0.664062 37.582031 0.664062 38.867188 C 0.664062 40.152344 5.449219 41.195312 11.347656 41.195312 C 17.25 41.195312 22.035156 40.152344 22.035156 38.867188 Z M 22.035156 38.867188 "/>
<use xlink:href="#surface8" mask="url(#mask1)"/>
<path style=" stroke:none;fill-rule:nonzero;fill:rgb(24.705882%,23.921569%,33.72549%);fill-opacity:1;" d="M 63.976562 60.476562 C 63.976562 58.527344 56.738281 56.949219 47.804688 56.949219 C 38.875 56.949219 31.636719 58.527344 31.636719 60.476562 C 31.636719 62.421875 38.875 64 47.804688 64 C 56.738281 64 63.976562 62.421875 63.976562 60.476562 Z M 63.976562 60.476562 "/>
<path style=" stroke:none;fill-rule:nonzero;fill:rgb(24.705882%,23.921569%,33.72549%);fill-opacity:1;" d="M 27.464844 59.101562 C 27.464844 57.933594 23.113281 56.984375 17.75 56.984375 C 12.382812 56.984375 8.035156 57.933594 8.035156 59.101562 C 8.035156 60.269531 12.382812 61.21875 17.75 61.21875 C 23.113281 61.21875 27.464844 60.269531 27.464844 59.101562 Z M 27.464844 59.101562 "/>
<path style="fill:none;stroke-width:2;stroke-linecap:butt;stroke-linejoin:miter;stroke:rgb(18.431373%,18.039216%,25.490196%);stroke-opacity:1;stroke-miterlimit:10;" d="M 493.978781 726.502625 C 584.008078 749.498291 757.025656 696.510132 776.029562 636.482483 " transform="matrix(0.0571429,0,0,0.0915594,-1.793765,-9.201717)"/>
<path style="fill:none;stroke-width:2;stroke-linecap:butt;stroke-linejoin:miter;stroke:rgb(18.431373%,18.039216%,25.490196%);stroke-opacity:1;stroke-miterlimit:10;" d="M 340.990499 359.510559 C 340.990499 359.510559 471.010031 323.502502 479.008078 439.504761 C 487.006124 555.507019 372.025656 588.485962 461.986593 611.481628 " transform="matrix(0.0571429,0,0,0.0915594,-1.793765,-9.201717)"/>
<path style="fill:none;stroke-width:2;stroke-linecap:butt;stroke-linejoin:miter;stroke:rgb(18.431373%,18.039216%,25.490196%);stroke-opacity:1;stroke-miterlimit:10;" d="M 215.414328 637.76239 C 215.414328 637.76239 254.447531 626.968506 256.908468 661.824646 C 259.301046 696.680786 224.711203 706.621399 251.781515 713.532898 " transform="matrix(0.0571429,0,0,0.0915594,-1.793765,-9.201717)"/>
<path style=" stroke:none;fill-rule:nonzero;fill:rgb(18.431373%,18.039216%,25.490196%);fill-opacity:1;" d="M 44.496094 51.570312 L 44.046875 56.175781 C 44.046875 56.175781 41.832031 58.0625 43.390625 58.117188 C 44.949219 58.171875 52.289062 58.117188 52.289062 58.117188 C 52.289062 58.117188 53.707031 58.117188 51.457031 56.121094 L 51.007812 51.292969 Z M 44.496094 51.570312 "/>
<use xlink:href="#surface11" mask="url(#mask2)"/>
<path style=" stroke:none;fill-rule:nonzero;fill:rgb(18.431373%,18.039216%,25.490196%);fill-opacity:1;" d="M 34.085938 19.472656 L 61.351562 19.472656 C 61.921875 19.472656 62.382812 20.214844 62.382812 21.125 L 62.382812 50.554688 C 62.382812 51.46875 61.921875 52.207031 61.351562 52.207031 L 34.085938 52.207031 C 33.515625 52.207031 33.054688 51.46875 33.054688 50.554688 L 33.054688 21.125 C 33.054688 20.214844 33.515625 19.472656 34.085938 19.472656 Z M 34.085938 19.472656 "/>
<path style=" stroke:none;fill-rule:nonzero;fill:rgb(24.705882%,23.921569%,33.72549%);fill-opacity:1;" d="M 34.039062 21.222656 L 61.394531 21.222656 L 61.394531 45.746094 L 34.039062 45.746094 Z M 34.039062 21.222656 "/>
<path style=" stroke:none;fill-rule:nonzero;fill:rgb(94.901961%,94.901961%,94.901961%);fill-opacity:1;" d="M 47.890625 20.445312 C 47.890625 20.597656 47.8125 20.722656 47.71875 20.722656 C 47.621094 20.722656 47.542969 20.597656 47.542969 20.445312 C 47.542969 20.292969 47.621094 20.167969 47.71875 20.167969 C 47.8125 20.167969 47.890625 20.292969 47.890625 20.445312 Z M 47.890625 20.445312 "/>
<path style=" stroke:none;fill-rule:nonzero;fill:rgb(18.431373%,18.039216%,25.490196%);fill-opacity:1;" d="M 62.382812 47.6875 L 62.382812 50.554688 C 62.382812 51.46875 61.921875 52.207031 61.351562 52.207031 L 34.085938 52.207031 C 33.515625 52.207031 33.054688 51.46875 33.054688 50.554688 L 33.054688 47.6875 Z M 62.382812 47.6875 "/>
<path style=" stroke:none;fill-rule:nonzero;fill:rgb(18.431373%,18.039216%,25.490196%);fill-opacity:1;" d="M 55.371094 61.113281 L 55.371094 61.667969 L 36.742188 61.667969 L 36.742188 61.222656 L 36.765625 61.113281 L 37.226562 59.117188 L 54.988281 59.117188 Z M 55.371094 61.113281 "/>
<path style=" stroke:none;fill-rule:nonzero;fill:rgb(18.431373%,18.039216%,25.490196%);fill-opacity:1;" d="M 62.539062 60.570312 C 62.503906 60.800781 62.378906 61.046875 62.085938 61.277344 C 61.050781 62.113281 58.9375 61.058594 58.9375 61.058594 C 58.9375 61.058594 57.308594 60.613281 57.308594 59.449219 C 57.355469 59.398438 57.402344 59.351562 57.453125 59.3125 C 57.886719 58.941406 59.335938 58.027344 61.90625 59.351562 C 62.09375 59.445312 62.261719 59.625 62.390625 59.863281 C 62.496094 60.058594 62.578125 60.304688 62.539062 60.570312 Z M 62.539062 60.570312 "/>
<use xlink:href="#surface14" mask="url(#mask3)"/>
<path style=" stroke:none;fill-rule:nonzero;fill:rgb(94.901961%,94.901961%,94.901961%);fill-opacity:1;" d="M 61.394531 59.890625 C 61.394531 59.769531 61.195312 59.671875 60.945312 59.671875 C 60.695312 59.671875 60.496094 59.769531 60.496094 59.890625 C 60.496094 60.015625 60.695312 60.113281 60.945312 60.113281 C 61.195312 60.113281 61.394531 60.015625 61.394531 59.890625 Z M 61.394531 59.890625 "/>
<path style=" stroke:none;fill-rule:nonzero;fill:rgb(94.901961%,94.901961%,94.901961%);fill-opacity:1;" d="M 48.375 49.960938 C 48.375 50.542969 48.082031 51.015625 47.71875 51.015625 C 47.355469 51.015625 47.058594 50.542969 47.058594 49.960938 C 47.058594 49.378906 47.355469 48.90625 47.71875 48.90625 C 48.082031 48.90625 48.375 49.378906 48.375 49.960938 Z M 48.375 49.960938 "/>
<use xlink:href="#surface17" mask="url(#mask4)"/>
<path style=" stroke:none;fill-rule:nonzero;fill:rgb(18.431373%,18.039216%,25.490196%);fill-opacity:1;" d="M 6.207031 14.558594 L 18.09375 14.558594 L 18.09375 36.714844 L 6.207031 36.714844 Z M 6.207031 14.558594 "/>
<path style=" stroke:none;fill-rule:nonzero;fill:rgb(24.705882%,23.921569%,33.72549%);fill-opacity:1;" d="M 5.007812 12.359375 L 19.292969 12.359375 L 19.292969 20.234375 L 5.007812 20.234375 Z M 5.007812 12.359375 "/>
<path style=" stroke:none;fill-rule:nonzero;fill:rgb(24.705882%,23.921569%,33.72549%);fill-opacity:1;" d="M 5.007812 21.699219 L 19.292969 21.699219 L 19.292969 29.574219 L 5.007812 29.574219 Z M 5.007812 21.699219 "/>
<path style=" stroke:none;fill-rule:nonzero;fill:rgb(24.705882%,23.921569%,33.72549%);fill-opacity:1;" d="M 5.007812 31.039062 L 19.292969 31.039062 L 19.292969 38.914062 L 5.007812 38.914062 Z M 5.007812 31.039062 "/>
<use xlink:href="#surface20" mask="url(#mask5)"/>
<use xlink:href="#surface23" mask="url(#mask6)"/>
<path style=" stroke:none;fill-rule:nonzero;fill:rgb(42.352941%,38.823529%,100%);fill-opacity:1;" d="M 18.148438 13.734375 L 19.0625 13.734375 L 19.0625 15.199219 L 18.148438 15.199219 Z M 18.148438 13.734375 "/>
<use xlink:href="#surface26" mask="url(#mask7)"/>
<use xlink:href="#surface29" mask="url(#mask8)"/>
<path style=" stroke:none;fill-rule:nonzero;fill:rgb(42.352941%,38.823529%,100%);fill-opacity:1;" d="M 18.148438 22.980469 L 19.0625 22.980469 L 19.0625 24.445312 L 18.148438 24.445312 Z M 18.148438 22.980469 "/>
<use xlink:href="#surface32" mask="url(#mask9)"/>
<use xlink:href="#surface35" mask="url(#mask10)"/>
<path style=" stroke:none;fill-rule:nonzero;fill:rgb(42.352941%,38.823529%,100%);fill-opacity:1;" d="M 18.148438 32.230469 L 19.0625 32.230469 L 19.0625 33.695312 L 18.148438 33.695312 Z M 18.148438 32.230469 "/>
<path style=" stroke:none;fill-rule:nonzero;fill:rgb(18.431373%,18.039216%,25.490196%);fill-opacity:1;" d="M 22.605469 49.257812 C 22.605469 53.253906 20.585938 56.492188 18.09375 56.492188 C 15.597656 56.492188 13.578125 53.253906 13.578125 49.257812 C 13.578125 45.265625 15.597656 42.027344 18.09375 42.027344 C 20.585938 42.027344 22.605469 45.265625 22.605469 49.257812 Z M 22.605469 49.257812 "/>
<path style=" stroke:none;fill-rule:nonzero;fill:rgb(18.431373%,18.039216%,25.490196%);fill-opacity:1;" d="M 16.035156 54.9375 L 17.40625 54.9375 L 17.40625 58.871094 L 16.035156 58.871094 Z M 16.035156 54.9375 "/>
<path style=" stroke:none;fill-rule:nonzero;fill:rgb(18.431373%,18.039216%,25.490196%);fill-opacity:1;" d="M 18.777344 54.9375 L 20.148438 54.9375 L 20.148438 58.871094 L 18.777344 58.871094 Z M 18.777344 54.9375 "/>
<path style=" stroke:none;fill-rule:nonzero;fill:rgb(18.431373%,18.039216%,25.490196%);fill-opacity:1;" d="M 18.320312 58.917969 C 18.320312 58.539062 17.808594 58.230469 17.175781 58.230469 C 16.546875 58.230469 16.035156 58.539062 16.035156 58.917969 C 16.035156 59.296875 16.546875 59.605469 17.175781 59.605469 C 17.808594 59.605469 18.320312 59.296875 18.320312 58.917969 Z M 18.320312 58.917969 "/>
<path style=" stroke:none;fill-rule:nonzero;fill:rgb(18.431373%,18.039216%,25.490196%);fill-opacity:1;" d="M 21.0625 58.828125 C 21.0625 58.449219 20.550781 58.140625 19.921875 58.140625 C 19.289062 58.140625 18.777344 58.449219 18.777344 58.828125 C 18.777344 59.207031 19.289062 59.511719 19.921875 59.511719 C 20.550781 59.511719 21.0625 59.207031 21.0625 58.828125 Z M 21.0625 58.828125 "/>
<path style=" stroke:none;fill-rule:nonzero;fill:rgb(100%,100%,100%);fill-opacity:1;" d="M 19.75 47.429688 C 19.75 48.792969 19.058594 49.898438 18.207031 49.898438 C 17.355469 49.898438 16.664062 48.792969 16.664062 47.429688 C 16.664062 46.0625 17.355469 44.957031 18.207031 44.957031 C 19.058594 44.957031 19.75 46.0625 19.75 47.429688 Z M 19.75 47.429688 "/>
<path style=" stroke:none;fill-rule:nonzero;fill:rgb(24.705882%,23.921569%,33.72549%);fill-opacity:1;" d="M 18.71875 47.429688 C 18.71875 47.882812 18.492188 48.25 18.207031 48.25 C 17.921875 48.25 17.691406 47.882812 17.691406 47.429688 C 17.691406 46.972656 17.921875 46.605469 18.207031 46.605469 C 18.492188 46.605469 18.71875 46.972656 18.71875 47.429688 Z M 18.71875 47.429688 "/>
<path style=" stroke:none;fill-rule:nonzero;fill:rgb(42.352941%,38.823529%,100%);fill-opacity:1;" d="M 13.714844 42.53125 C 13.347656 39.917969 14.511719 37.273438 16.316406 36.628906 C 18.117188 35.984375 19.875 37.582031 20.238281 40.199219 C 20.601562 42.8125 19.410156 43.777344 17.605469 44.421875 C 15.804688 45.066406 14.078125 45.148438 13.714844 42.53125 Z M 13.714844 42.53125 "/>
<path style=" stroke:none;fill-rule:nonzero;fill:rgb(18.431373%,18.039216%,25.490196%);fill-opacity:1;" d="M 24.121094 45.347656 C 23.96875 44.773438 22.914062 44.941406 21.769531 45.730469 C 20.621094 46.515625 19.816406 47.617188 19.972656 48.195312 C 20.125 48.773438 21.179688 48.601562 22.324219 47.816406 C 23.472656 47.03125 24.277344 45.925781 24.121094 45.347656 Z M 24.121094 45.347656 "/>
<path style=" stroke:none;fill-rule:nonzero;fill:rgb(18.431373%,18.039216%,25.490196%);fill-opacity:1;" d="M 15.664062 50.203125 C 15.511719 49.625 14.457031 49.796875 13.3125 50.582031 C 12.164062 51.367188 11.359375 52.472656 11.515625 53.046875 C 11.667969 53.625 12.722656 53.453125 13.867188 52.667969 C 15.015625 51.882812 15.820312 50.777344 15.664062 50.203125 Z M 15.664062 50.203125 "/>
<path style=" stroke:none;fill-rule:nonzero;fill:rgb(100%,100%,100%);fill-opacity:1;" d="M 20.71875 51.363281 C 20.71875 52.074219 19.582031 53.46875 18.320312 53.46875 C 17.058594 53.46875 15.863281 52.164062 15.863281 51.457031 C 15.863281 50.75 17.058594 50.90625 18.320312 50.90625 C 19.582031 50.90625 20.71875 50.65625 20.71875 51.363281 Z M 20.71875 51.363281 "/>
</g>
</svg>
