<?xml version="1.0" encoding="UTF-8"?>
<svg xmlns="http://www.w3.org/2000/svg" xmlns:xlink="http://www.w3.org/1999/xlink" width="64pt" height="40pt" viewBox="0 0 64 40" version="1.1">
<defs>
<filter id="alpha" filterUnits="objectBoundingBox" x="0%" y="0%" width="100%" height="100%">
  <feColorMatrix type="matrix" in="SourceGraphic" values="0 0 0 0 1 0 0 0 0 1 0 0 0 0 1 0 0 0 1 0"/>
</filter>
<mask id="mask0">
  <g filter="url(#alpha)">
<rect x="0" y="0" width="64" height="40" style="fill:rgb(0%,0%,0%);fill-opacity:0.2;stroke:none;"/>
  </g>
</mask>
<clipPath id="clip1">
  <rect x="0" y="0" width="64" height="40"/>
</clipPath>
<g id="surface5" clip-path="url(#clip1)">
<path style=" stroke:none;fill-rule:nonzero;fill:rgb(0%,0%,0%);fill-opacity:1;" d="M 7.820312 12.089844 C 6.824219 12.097656 5.507812 11.9375 5.242188 11.773438 C 5.042969 11.652344 4.960938 11.210938 4.933594 11.003906 C 4.914062 11.007812 4.90625 11.007812 4.90625 11.007812 C 4.90625 11.007812 4.960938 11.71875 5.226562 11.878906 C 5.492188 12.042969 6.808594 12.203125 7.800781 12.195312 C 8.089844 12.195312 8.1875 12.089844 8.183594 11.941406 C 8.140625 12.03125 8.03125 12.089844 7.820312 12.089844 Z M 7.820312 12.089844 "/>
</g>
<mask id="mask1">
  <g filter="url(#alpha)">
<rect x="0" y="0" width="64" height="40" style="fill:rgb(0%,0%,0%);fill-opacity:0.101961;stroke:none;"/>
  </g>
</mask>
<clipPath id="clip2">
  <rect x="0" y="0" width="64" height="40"/>
</clipPath>
<g id="surface8" clip-path="url(#clip2)">
<path style=" stroke:none;fill-rule:nonzero;fill:rgb(0%,0%,0%);fill-opacity:1;" d="M 20.320312 24.292969 C 20.320312 23.617188 16.304688 23.070312 11.347656 23.070312 C 6.394531 23.070312 2.378906 23.617188 2.378906 24.292969 C 2.378906 24.96875 6.394531 25.515625 11.347656 25.515625 C 16.304688 25.515625 20.320312 24.96875 20.320312 24.292969 Z M 20.320312 24.292969 "/>
</g>
<mask id="mask2">
  <g filter="url(#alpha)">
<rect x="0" y="0" width="64" height="40" style="fill:rgb(0%,0%,0%);fill-opacity:0.101961;stroke:none;"/>
  </g>
</mask>
<clipPath id="clip3">
  <rect x="0" y="0" width="64" height="40"/>
</clipPath>
<g id="surface11" clip-path="url(#clip3)">
<path style=" stroke:none;fill-rule:nonzero;fill:rgb(0%,0%,0%);fill-opacity:1;" d="M 43.074219 36.292969 C 43.429688 35.976562 44.046875 35.648438 44.046875 35.648438 L 44.496094 32.769531 L 51.007812 32.777344 L 51.457031 35.613281 C 51.980469 35.902344 52.308594 36.128906 52.496094 36.296875 C 52.785156 36.234375 53.101562 35.988281 51.457031 35.074219 L 51.007812 32.058594 L 44.496094 32.230469 L 44.046875 35.109375 C 44.046875 35.109375 42.183594 36.101562 43.074219 36.292969 Z M 43.074219 36.292969 "/>
</g>
<mask id="mask3">
  <g filter="url(#alpha)">
<rect x="0" y="0" width="64" height="40" style="fill:rgb(0%,0%,0%);fill-opacity:0.101961;stroke:none;"/>
  </g>
</mask>
<clipPath id="clip4">
  <rect x="0" y="0" width="64" height="40"/>
</clipPath>
<g id="surface14" clip-path="url(#clip4)">
<path style=" stroke:none;fill-rule:nonzero;fill:rgb(0%,0%,0%);fill-opacity:1;" d="M 62.539062 37.855469 C 61.269531 38.34375 60.132812 38.378906 58.972656 37.570312 C 58.382812 37.164062 57.851562 37.0625 57.453125 37.070312 C 57.886719 36.839844 59.335938 36.269531 61.90625 37.09375 C 62.09375 37.152344 62.261719 37.265625 62.390625 37.414062 C 62.496094 37.535156 62.578125 37.691406 62.539062 37.855469 Z M 62.539062 37.855469 "/>
</g>
<mask id="mask4">
  <g filter="url(#alpha)">
<rect x="0" y="0" width="64" height="40" style="fill:rgb(0%,0%,0%);fill-opacity:0.101961;stroke:none;"/>
  </g>
</mask>
<clipPath id="clip5">
  <rect x="0" y="0" width="64" height="40"/>
</clipPath>
<g id="surface17" clip-path="url(#clip5)">
<path style=" stroke:none;fill-rule:nonzero;fill:rgb(0%,0%,0%);fill-opacity:1;" d="M 55.371094 38.195312 L 55.371094 38.542969 L 36.742188 38.542969 L 36.742188 38.265625 L 36.765625 38.195312 Z M 55.371094 38.195312 "/>
</g>
<mask id="mask5">
  <g filter="url(#alpha)">
<rect x="0" y="0" width="64" height="40" style="fill:rgb(0%,0%,0%);fill-opacity:0.4;stroke:none;"/>
  </g>
</mask>
<clipPath id="clip6">
  <rect x="0" y="0" width="64" height="40"/>
</clipPath>
<g id="surface20" clip-path="url(#clip6)">
<path style=" stroke:none;fill-rule:nonzero;fill:rgb(42.352941%,38.823529%,100%);fill-opacity:1;" d="M 15.519531 8.582031 L 16.433594 8.582031 L 16.433594 9.5 L 15.519531 9.5 Z M 15.519531 8.582031 "/>
</g>
<mask id="mask6">
  <g filter="url(#alpha)">
<rect x="0" y="0" width="64" height="40" style="fill:rgb(0%,0%,0%);fill-opacity:0.8;stroke:none;"/>
  </g>
</mask>
<clipPath id="clip7">
  <rect x="0" y="0" width="64" height="40"/>
</clipPath>
<g id="surface23" clip-path="url(#clip7)">
<path style=" stroke:none;fill-rule:nonzero;fill:rgb(42.352941%,38.823529%,100%);fill-opacity:1;" d="M 16.835938 8.582031 L 17.75 8.582031 L 17.75 9.5 L 16.835938 9.5 Z M 16.835938 8.582031 "/>
</g>
<mask id="mask7">
  <g filter="url(#alpha)">
<rect x="0" y="0" width="64" height="40" style="fill:rgb(0%,0%,0%);fill-opacity:0.4;stroke:none;"/>
  </g>
</mask>
<clipPath id="clip8">
  <rect x="0" y="0" width="64" height="40"/>
</clipPath>
<g id="surface26" clip-path="url(#clip8)">
<path style=" stroke:none;fill-rule:nonzero;fill:rgb(42.352941%,38.823529%,100%);fill-opacity:1;" d="M 15.519531 14.363281 L 16.433594 14.363281 L 16.433594 15.277344 L 15.519531 15.277344 Z M 15.519531 14.363281 "/>
</g>
<mask id="mask8">
  <g filter="url(#alpha)">
<rect x="0" y="0" width="64" height="40" style="fill:rgb(0%,0%,0%);fill-opacity:0.8;stroke:none;"/>
  </g>
</mask>
<clipPath id="clip9">
  <rect x="0" y="0" width="64" height="40"/>
</clipPath>
<g id="surface29" clip-path="url(#clip9)">
<path style=" stroke:none;fill-rule:nonzero;fill:rgb(42.352941%,38.823529%,100%);fill-opacity:1;" d="M 16.835938 14.363281 L 17.75 14.363281 L 17.75 15.277344 L 16.835938 15.277344 Z M 16.835938 14.363281 "/>
</g>
<mask id="mask9">
  <g filter="url(#alpha)">
<rect x="0" y="0" width="64" height="40" style="fill:rgb(0%,0%,0%);fill-opacity:0.4;stroke:none;"/>
  </g>
</mask>
<clipPath id="clip10">
  <rect x="0" y="0" width="64" height="40"/>
</clipPath>
<g id="surface32" clip-path="url(#clip10)">
<path style=" stroke:none;fill-rule:nonzero;fill:rgb(42.352941%,38.823529%,100%);fill-opacity:1;" d="M 15.519531 20.144531 L 16.433594 20.144531 L 16.433594 21.058594 L 15.519531 21.058594 Z M 15.519531 20.144531 "/>
</g>
<mask id="mask10">
  <g filter="url(#alpha)">
<rect x="0" y="0" width="64" height="40" style="fill:rgb(0%,0%,0%);fill-opacity:0.8;stroke:none;"/>
  </g>
</mask>
<clipPath id="clip11">
  <rect x="0" y="0" width="64" height="40"/>
</clipPath>
<g id="surface35" clip-path="url(#clip11)">
<path style=" stroke:none;fill-rule:nonzero;fill:rgb(42.352941%,38.823529%,100%);fill-opacity:1;" d="M 16.835938 20.144531 L 17.75 20.144531 L 17.75 21.058594 L 16.835938 21.058594 Z M 16.835938 20.144531 "/>
</g>
</defs>
<g id="surface1">
<path style=" stroke:none;fill-rule:nonzero;fill:rgb(94.901961%,94.901961%,94.901961%);fill-opacity:1;" d="M 28.890625 12.1875 C 28.890625 18.921875 23.441406 24.378906 16.71875 24.378906 C 10 24.378906 4.550781 18.921875 4.550781 12.1875 C 4.550781 5.457031 10 0 16.71875 0 C 23.441406 0 28.890625 5.457031 28.890625 12.1875 Z M 28.890625 12.1875 "/>
<path style=" stroke:none;fill-rule:nonzero;fill:rgb(18.431373%,18.039216%,25.490196%);fill-opacity:1;" d="M 0 2.925781 C 0 7.363281 2.777344 10.949219 6.210938 10.949219 "/>
<path style=" stroke:none;fill-rule:nonzero;fill:rgb(42.352941%,38.823529%,100%);fill-opacity:1;" d="M 6.210938 10.949219 C 6.210938 6.464844 9.3125 2.835938 13.144531 2.835938 "/>
<path style=" stroke:none;fill-rule:nonzero;fill:rgb(42.352941%,38.823529%,100%);fill-opacity:1;" d="M 2.25 3.328125 C 2.25 7.542969 4.023438 10.949219 6.210938 10.949219 "/>
<path style=" stroke:none;fill-rule:nonzero;fill:rgb(18.431373%,18.039216%,25.490196%);fill-opacity:1;" d="M 6.210938 10.949219 C 6.210938 5.21875 9.792969 0.582031 14.222656 0.582031 "/>
<path style=" stroke:none;fill-rule:nonzero;fill:rgb(65.882353%,65.882353%,65.882353%);fill-opacity:1;" d="M 4.90625 11.007812 C 4.90625 11.007812 5.785156 10.980469 6.050781 10.789062 C 6.316406 10.601562 7.40625 10.375 7.472656 10.679688 C 7.539062 10.980469 8.796875 12.1875 7.800781 12.195312 C 6.808594 12.203125 5.492188 12.042969 5.226562 11.878906 C 4.960938 11.71875 4.90625 11.007812 4.90625 11.007812 Z M 4.90625 11.007812 "/>
<use xlink:href="#surface5" mask="url(#mask0)"/>
<path style=" stroke:none;fill-rule:nonzero;fill:rgb(24.705882%,23.921569%,33.72549%);fill-opacity:1;" d="M 22.035156 24.292969 C 22.035156 23.488281 17.25 22.835938 11.347656 22.835938 C 5.449219 22.835938 0.664062 23.488281 0.664062 24.292969 C 0.664062 25.097656 5.449219 25.746094 11.347656 25.746094 C 17.25 25.746094 22.035156 25.097656 22.035156 24.292969 Z M 22.035156 24.292969 "/>
<use xlink:href="#surface8" mask="url(#mask1)"/>
<path style=" stroke:none;fill-rule:nonzero;fill:rgb(24.705882%,23.921569%,33.72549%);fill-opacity:1;" d="M 63.976562 37.796875 C 63.976562 36.582031 56.738281 35.59375 47.804688 35.59375 C 38.875 35.59375 31.636719 36.582031 31.636719 37.796875 C 31.636719 39.011719 38.875 40 47.804688 40 C 56.738281 40 63.976562 39.011719 63.976562 37.796875 Z M 63.976562 37.796875 "/>
<path style=" stroke:none;fill-rule:nonzero;fill:rgb(24.705882%,23.921569%,33.72549%);fill-opacity:1;" d="M 27.464844 36.9375 C 27.464844 36.207031 23.113281 35.613281 17.75 35.613281 C 12.382812 35.613281 8.035156 36.207031 8.035156 36.9375 C 8.035156 37.667969 12.382812 38.261719 17.75 38.261719 C 23.113281 38.261719 27.464844 37.667969 27.464844 36.9375 Z M 27.464844 36.9375 "/>
<path style="fill:none;stroke-width:2;stroke-linecap:butt;stroke-linejoin:miter;stroke:rgb(18.431373%,18.039216%,25.490196%);stroke-opacity:1;stroke-miterlimit:10;" d="M 493.978781 726.528223 C 584.008078 749.532422 757.025656 696.493066 776.029562 636.491016 " transform="matrix(0.0571429,0,0,0.0572246,-1.793765,-5.751073)"/>
<path style="fill:none;stroke-width:2;stroke-linecap:butt;stroke-linejoin:miter;stroke:rgb(18.431373%,18.039216%,25.490196%);stroke-opacity:1;stroke-miterlimit:10;" d="M 340.990499 359.484961 C 340.990499 359.484961 471.010031 323.511035 479.008078 439.487695 C 487.006124 555.532617 372.025656 588.503027 461.986593 611.507227 " transform="matrix(0.0571429,0,0,0.0572246,-1.793765,-5.751073)"/>
<path style="fill:none;stroke-width:2;stroke-linecap:butt;stroke-linejoin:miter;stroke:rgb(18.431373%,18.039216%,25.490196%);stroke-opacity:1;stroke-miterlimit:10;" d="M 215.414328 637.787988 C 215.414328 637.787988 254.447531 626.934375 256.908468 661.816113 C 259.301046 696.697852 224.711203 706.595801 251.781515 713.490234 " transform="matrix(0.0571429,0,0,0.0572246,-1.793765,-5.751073)"/>
<path style=" stroke:none;fill-rule:nonzero;fill:rgb(18.431373%,18.039216%,25.490196%);fill-opacity:1;" d="M 44.496094 32.230469 L 44.046875 35.109375 C 44.046875 35.109375 41.832031 36.289062 43.390625 36.324219 C 44.949219 36.359375 52.289062 36.324219 52.289062 36.324219 C 52.289062 36.324219 53.707031 36.324219 51.457031 35.074219 L 51.007812 32.058594 Z M 44.496094 32.230469 "/>
<use xlink:href="#surface11" mask="url(#mask2)"/>
<path style=" stroke:none;fill-rule:nonzero;fill:rgb(18.431373%,18.039216%,25.490196%);fill-opacity:1;" d="M 34.085938 12.171875 L 61.351562 12.171875 C 61.921875 12.171875 62.382812 12.632812 62.382812 13.203125 L 62.382812 31.597656 C 62.382812 32.167969 61.921875 32.628906 61.351562 32.628906 L 34.085938 32.628906 C 33.515625 32.628906 33.054688 32.167969 33.054688 31.597656 L 33.054688 13.203125 C 33.054688 12.632812 33.515625 12.171875 34.085938 12.171875 Z M 34.085938 12.171875 "/>
<path style=" stroke:none;fill-rule:nonzero;fill:rgb(24.705882%,23.921569%,33.72549%);fill-opacity:1;" d="M 34.039062 13.261719 L 61.394531 13.261719 L 61.394531 28.589844 L 34.039062 28.589844 Z M 34.039062 13.261719 "/>
<path style=" stroke:none;fill-rule:nonzero;fill:rgb(94.901961%,94.901961%,94.901961%);fill-opacity:1;" d="M 47.890625 12.777344 C 47.890625 12.875 47.8125 12.953125 47.71875 12.953125 C 47.621094 12.953125 47.542969 12.875 47.542969 12.777344 C 47.542969 12.683594 47.621094 12.605469 47.71875 12.605469 C 47.8125 12.605469 47.890625 12.683594 47.890625 12.777344 Z M 47.890625 12.777344 "/>
<path style=" stroke:none;fill-rule:nonzero;fill:rgb(18.431373%,18.039216%,25.490196%);fill-opacity:1;" d="M 62.382812 29.804688 L 62.382812 31.597656 C 62.382812 32.167969 61.921875 32.628906 61.351562 32.628906 L 34.085938 32.628906 C 33.515625 32.628906 33.054688 32.167969 33.054688 31.597656 L 33.054688 29.804688 Z M 62.382812 29.804688 "/>
<path style=" stroke:none;fill-rule:nonzero;fill:rgb(18.431373%,18.039216%,25.490196%);fill-opacity:1;" d="M 55.371094 38.195312 L 55.371094 38.542969 L 36.742188 38.542969 L 36.742188 38.265625 L 36.765625 38.195312 L 37.226562 36.945312 L 54.988281 36.945312 Z M 55.371094 38.195312 "/>
<path style=" stroke:none;fill-rule:nonzero;fill:rgb(18.431373%,18.039216%,25.490196%);fill-opacity:1;" d="M 62.539062 37.855469 C 62.503906 38 62.378906 38.15625 62.085938 38.300781 C 61.050781 38.820312 58.9375 38.160156 58.9375 38.160156 C 58.9375 38.160156 57.308594 37.882812 57.308594 37.15625 C 57.355469 37.125 57.402344 37.09375 57.453125 37.070312 C 57.886719 36.839844 59.335938 36.269531 61.90625 37.09375 C 62.09375 37.152344 62.261719 37.265625 62.390625 37.414062 C 62.496094 37.535156 62.578125 37.691406 62.539062 37.855469 Z M 62.539062 37.855469 "/>
<use xlink:href="#surface14" mask="url(#mask3)"/>
<path style=" stroke:none;fill-rule:nonzero;fill:rgb(94.901961%,94.901961%,94.901961%);fill-opacity:1;" d="M 61.394531 37.433594 C 61.394531 37.355469 61.195312 37.292969 60.945312 37.292969 C 60.695312 37.292969 60.496094 37.355469 60.496094 37.433594 C 60.496094 37.507812 60.695312 37.570312 60.945312 37.570312 C 61.195312 37.570312 61.394531 37.507812 61.394531 37.433594 Z M 61.394531 37.433594 "/>
<path style=" stroke:none;fill-rule:nonzero;fill:rgb(94.901961%,94.901961%,94.901961%);fill-opacity:1;" d="M 48.375 31.226562 C 48.375 31.589844 48.082031 31.882812 47.71875 31.882812 C 47.355469 31.882812 47.058594 31.589844 47.058594 31.226562 C 47.058594 30.863281 47.355469 30.566406 47.71875 30.566406 C 48.082031 30.566406 48.375 30.863281 48.375 31.226562 Z M 48.375 31.226562 "/>
<use xlink:href="#surface17" mask="url(#mask4)"/>
<path style=" stroke:none;fill-rule:nonzero;fill:rgb(18.431373%,18.039216%,25.490196%);fill-opacity:1;" d="M 6.207031 9.097656 L 18.09375 9.097656 L 18.09375 22.945312 L 6.207031 22.945312 Z M 6.207031 9.097656 "/>
<path style=" stroke:none;fill-rule:nonzero;fill:rgb(24.705882%,23.921569%,33.72549%);fill-opacity:1;" d="M 5.007812 7.726562 L 19.292969 7.726562 L 19.292969 12.648438 L 5.007812 12.648438 Z M 5.007812 7.726562 "/>
<path style=" stroke:none;fill-rule:nonzero;fill:rgb(24.705882%,23.921569%,33.72549%);fill-opacity:1;" d="M 5.007812 13.5625 L 19.292969 13.5625 L 19.292969 18.484375 L 5.007812 18.484375 Z M 5.007812 13.5625 "/>
<path style=" stroke:none;fill-rule:nonzero;fill:rgb(24.705882%,23.921569%,33.72549%);fill-opacity:1;" d="M 5.007812 19.398438 L 19.292969 19.398438 L 19.292969 24.320312 L 5.007812 24.320312 Z M 5.007812 19.398438 "/>
<use xlink:href="#surface20" mask="url(#mask5)"/>
<use xlink:href="#surface23" mask="url(#mask6)"/>
<path style=" stroke:none;fill-rule:nonzero;fill:rgb(42.352941%,38.823529%,100%);fill-opacity:1;" d="M 18.148438 8.582031 L 19.0625 8.582031 L 19.0625 9.5 L 18.148438 9.5 Z M 18.148438 8.582031 "/>
<use xlink:href="#surface26" mask="url(#mask7)"/>
<use xlink:href="#surface29" mask="url(#mask8)"/>
<path style=" stroke:none;fill-rule:nonzero;fill:rgb(42.352941%,38.823529%,100%);fill-opacity:1;" d="M 18.148438 14.363281 L 19.0625 14.363281 L 19.0625 15.277344 L 18.148438 15.277344 Z M 18.148438 14.363281 "/>
<use xlink:href="#surface32" mask="url(#mask9)"/>
<use xlink:href="#surface35" mask="url(#mask10)"/>
<path style=" stroke:none;fill-rule:nonzero;fill:rgb(42.352941%,38.823529%,100%);fill-opacity:1;" d="M 18.148438 20.144531 L 19.0625 20.144531 L 19.0625 21.058594 L 18.148438 21.058594 Z M 18.148438 20.144531 "/>
<path style=" stroke:none;fill-rule:nonzero;fill:rgb(18.431373%,18.039216%,25.490196%);fill-opacity:1;" d="M 22.605469 30.785156 C 22.605469 33.285156 20.585938 35.308594 18.09375 35.308594 C 15.597656 35.308594 13.578125 33.285156 13.578125 30.785156 C 13.578125 28.289062 15.597656 26.265625 18.09375 26.265625 C 20.585938 26.265625 22.605469 28.289062 22.605469 30.785156 Z M 22.605469 30.785156 "/>
<path style=" stroke:none;fill-rule:nonzero;fill:rgb(18.431373%,18.039216%,25.490196%);fill-opacity:1;" d="M 16.035156 34.335938 L 17.40625 34.335938 L 17.40625 36.796875 L 16.035156 36.796875 Z M 16.035156 34.335938 "/>
<path style=" stroke:none;fill-rule:nonzero;fill:rgb(18.431373%,18.039216%,25.490196%);fill-opacity:1;" d="M 18.777344 34.335938 L 20.148438 34.335938 L 20.148438 36.796875 L 18.777344 36.796875 Z M 18.777344 34.335938 "/>
<path style=" stroke:none;fill-rule:nonzero;fill:rgb(18.431373%,18.039216%,25.490196%);fill-opacity:1;" d="M 18.320312 36.824219 C 18.320312 36.585938 17.808594 36.394531 17.175781 36.394531 C 16.546875 36.394531 16.035156 36.585938 16.035156 36.824219 C 16.035156 37.0625 16.546875 37.253906 17.175781 37.253906 C 17.808594 37.253906 18.320312 37.0625 18.320312 36.824219 Z M 18.320312 36.824219 "/>
<path style=" stroke:none;fill-rule:nonzero;fill:rgb(18.431373%,18.039216%,25.490196%);fill-opacity:1;" d="M 21.0625 36.765625 C 21.0625 36.53125 20.550781 36.335938 19.921875 36.335938 C 19.289062 36.335938 18.777344 36.53125 18.777344 36.765625 C 18.777344 37.003906 19.289062 37.195312 19.921875 37.195312 C 20.550781 37.195312 21.0625 37.003906 21.0625 36.765625 Z M 21.0625 36.765625 "/>
<path style=" stroke:none;fill-rule:nonzero;fill:rgb(100%,100%,100%);fill-opacity:1;" d="M 19.75 29.640625 C 19.75 30.496094 19.058594 31.1875 18.207031 31.1875 C 17.355469 31.1875 16.664062 30.496094 16.664062 29.640625 C 16.664062 28.789062 17.355469 28.097656 18.207031 28.097656 C 19.058594 28.097656 19.75 28.789062 19.75 29.640625 Z M 19.75 29.640625 "/>
<path style=" stroke:none;fill-rule:nonzero;fill:rgb(24.705882%,23.921569%,33.72549%);fill-opacity:1;" d="M 18.71875 29.640625 C 18.71875 29.925781 18.492188 30.15625 18.207031 30.15625 C 17.921875 30.15625 17.691406 29.925781 17.691406 29.640625 C 17.691406 29.359375 17.921875 29.128906 18.207031 29.128906 C 18.492188 29.128906 18.71875 29.359375 18.71875 29.640625 Z M 18.71875 29.640625 "/>
<path style=" stroke:none;fill-rule:nonzero;fill:rgb(42.352941%,38.823529%,100%);fill-opacity:1;" d="M 13.714844 26.582031 C 13.347656 24.949219 14.511719 23.296875 16.316406 22.894531 C 18.117188 22.488281 19.875 23.488281 20.238281 25.125 C 20.601562 26.757812 19.410156 27.359375 17.605469 27.765625 C 15.804688 28.167969 14.078125 28.21875 13.714844 26.582031 Z M 13.714844 26.582031 "/>
<path style=" stroke:none;fill-rule:nonzero;fill:rgb(18.431373%,18.039216%,25.490196%);fill-opacity:1;" d="M 24.121094 28.34375 C 23.96875 27.984375 22.914062 28.089844 21.769531 28.582031 C 20.621094 29.070312 19.816406 29.761719 19.972656 30.121094 C 20.125 30.484375 21.179688 30.375 22.324219 29.886719 C 23.472656 29.394531 24.277344 28.703125 24.121094 28.34375 Z M 24.121094 28.34375 "/>
<path style=" stroke:none;fill-rule:nonzero;fill:rgb(18.431373%,18.039216%,25.490196%);fill-opacity:1;" d="M 15.664062 31.375 C 15.511719 31.015625 14.457031 31.121094 13.3125 31.613281 C 12.164062 32.105469 11.359375 32.792969 11.515625 33.15625 C 11.667969 33.515625 12.722656 33.410156 13.867188 32.917969 C 15.015625 32.425781 15.820312 31.738281 15.664062 31.375 Z M 15.664062 31.375 "/>
<path style=" stroke:none;fill-rule:nonzero;fill:rgb(100%,100%,100%);fill-opacity:1;" d="M 20.71875 32.101562 C 20.71875 32.546875 19.582031 33.417969 18.320312 33.417969 C 17.058594 33.417969 15.863281 32.601562 15.863281 32.160156 C 15.863281 31.71875 17.058594 31.816406 18.320312 31.816406 C 19.582031 31.816406 20.71875 31.660156 20.71875 32.101562 Z M 20.71875 32.101562 "/>
</g>
</svg>
