<?xml version="1.0" encoding="UTF-8"?>
<svg xmlns="http://www.w3.org/2000/svg" xmlns:xlink="http://www.w3.org/1999/xlink" width="64pt" height="64pt" viewBox="0 0 64 64" version="1.1">
<defs>
<filter id="alpha" filterUnits="objectBoundingBox" x="0%" y="0%" width="100%" height="100%">
  <feColorMatrix type="matrix" in="SourceGraphic" values="0 0 0 0 1 0 0 0 0 1 0 0 0 0 1 0 0 0 1 0"/>
</filter>
<mask id="mask0">
  <g filter="url(#alpha)">
<rect x="0" y="0" width="64" height="64" style="fill:rgb(0%,0%,0%);fill-opacity:0.101961;stroke:none;"/>
  </g>
</mask>
<clipPath id="clip1">
  <rect x="0" y="0" width="64" height="64"/>
</clipPath>
<g id="surface5" clip-path="url(#clip1)">
<path style=" stroke:none;fill-rule:nonzero;fill:rgb(0%,0%,0%);fill-opacity:1;" d="M 61.300781 17.785156 C 61.300781 12.335938 57.523438 7.785156 52.601562 7.304688 C 52.878906 7.277344 53.160156 7.261719 53.441406 7.261719 C 58.710938 7.265625 62.980469 11.976562 62.980469 17.785156 C 62.980469 23.59375 58.710938 28.304688 53.441406 28.308594 C 53.160156 28.308594 52.878906 28.292969 52.601562 28.265625 C 57.523438 27.785156 61.300781 23.234375 61.300781 17.785156 Z M 61.300781 17.785156 "/>
</g>
<mask id="mask1">
  <g filter="url(#alpha)">
<rect x="0" y="0" width="64" height="64" style="fill:rgb(0%,0%,0%);fill-opacity:0.101961;stroke:none;"/>
  </g>
</mask>
<clipPath id="clip2">
  <rect x="0" y="0" width="64" height="64"/>
</clipPath>
<g id="surface8" clip-path="url(#clip2)">
<path style=" stroke:none;fill-rule:nonzero;fill:rgb(0%,0%,0%);fill-opacity:1;" d="M 25.386719 40.488281 C 25.386719 37.011719 27.796875 34.109375 30.9375 33.804688 C 30.757812 33.785156 30.578125 33.777344 30.398438 33.777344 C 27.039062 33.777344 24.3125 36.785156 24.3125 40.488281 C 24.3125 44.195312 27.039062 47.199219 30.398438 47.199219 C 30.578125 47.199219 30.757812 47.191406 30.933594 47.175781 C 27.792969 46.867188 25.386719 43.964844 25.386719 40.488281 Z M 25.386719 40.488281 "/>
</g>
</defs>
<g id="surface1">
<path style=" stroke:none;fill-rule:nonzero;fill:rgb(94.901961%,94.901961%,94.901961%);fill-opacity:1;" d="M 48.792969 25.453125 C 48.65625 25.554688 48.523438 25.65625 48.394531 25.765625 C 47.117188 29.832031 46.46875 34.105469 46.476562 38.410156 C 46.476562 38.90625 46.488281 39.402344 46.507812 39.898438 C 46.648438 43.609375 47.289062 47.28125 48.414062 50.785156 C 48.472656 50.96875 48.53125 51.152344 48.59375 51.335938 C 48.636719 51.46875 48.683594 51.601562 48.730469 51.730469 C 48.777344 51.796875 48.824219 51.859375 48.871094 51.921875 C 48.875 51.925781 48.878906 51.929688 48.882812 51.933594 C 48.902344 51.960938 48.921875 51.984375 48.9375 52.011719 C 49.019531 52.121094 49.101562 52.230469 49.183594 52.339844 L 49.121094 52.347656 L 48.957031 52.367188 L 48.957031 52.371094 C 49.011719 52.367188 49.066406 52.359375 49.121094 52.355469 C 49.144531 52.355469 49.164062 52.355469 49.183594 52.351562 C 49.203125 52.347656 49.222656 52.347656 49.242188 52.347656 C 51.582031 52.160156 53.976562 51.910156 56.066406 50.746094 C 58.25 49.527344 60.046875 47.035156 59.839844 44.34375 C 59.8125 43.992188 59.75 43.644531 59.652344 43.308594 C 59.609375 43.167969 59.5625 43.027344 59.515625 42.890625 C 58.902344 41.175781 57.496094 39.957031 55.835938 39.710938 C 54.179688 39.460938 52.527344 40.21875 51.519531 41.6875 C 52.046875 38.882812 54.734375 37.332031 57.171875 36.347656 C 59.613281 35.363281 62.363281 34.324219 63.523438 31.761719 C 64.171875 30.335938 64.121094 28.714844 63.601562 27.246094 C 63.585938 27.199219 63.566406 27.15625 63.550781 27.109375 C 62.898438 25.378906 61.675781 23.984375 60.128906 23.203125 C 57.238281 21.800781 53.820312 22.519531 50.980469 24.042969 C 50.21875 24.449219 49.488281 24.921875 48.792969 25.453125 Z M 48.792969 25.453125 "/>
<path style=" stroke:none;fill-rule:nonzero;fill:rgb(100%,100%,100%);fill-opacity:1;" d="M 57.640625 42.996094 C 55.429688 43.332031 53.371094 44.445312 51.773438 46.171875 C 50.414062 47.660156 49.445312 49.519531 48.960938 51.5625 C 48.933594 51.679688 48.910156 51.796875 48.886719 51.910156 C 48.824219 51.796875 48.765625 51.679688 48.707031 51.5625 C 48.667969 51.488281 48.628906 51.410156 48.59375 51.335938 C 48.636719 51.46875 48.683594 51.601562 48.730469 51.730469 C 48.777344 51.796875 48.824219 51.859375 48.871094 51.921875 C 48.875 51.925781 48.878906 51.929688 48.882812 51.933594 C 48.902344 51.960938 48.921875 51.984375 48.9375 52.011719 C 49.019531 52.121094 49.101562 52.230469 49.183594 52.339844 L 49.121094 52.347656 L 48.957031 52.367188 L 48.957031 52.371094 C 49.011719 52.367188 49.066406 52.359375 49.121094 52.355469 C 49.144531 52.355469 49.164062 52.355469 49.183594 52.351562 C 49.191406 52.316406 49.199219 52.28125 49.203125 52.246094 C 50.175781 46.808594 54.632812 42.992188 59.652344 43.308594 C 59.609375 43.167969 59.5625 43.027344 59.515625 42.890625 C 58.890625 42.867188 58.261719 42.902344 57.640625 42.996094 Z M 57.640625 42.996094 "/>
<path style=" stroke:none;fill-rule:nonzero;fill:rgb(100%,100%,100%);fill-opacity:1;" d="M 49.832031 33.113281 C 48.96875 33.894531 48.214844 34.808594 47.59375 35.832031 C 47.269531 36.375 46.992188 36.953125 46.765625 37.554688 C 46.660156 37.832031 46.5625 38.121094 46.476562 38.410156 C 46.476562 38.90625 46.488281 39.402344 46.507812 39.898438 C 46.574219 39.519531 46.660156 39.144531 46.761719 38.777344 C 46.816406 38.574219 46.875 38.375 46.941406 38.179688 C 47.667969 35.980469 49.074219 34.199219 50.765625 32.816406 C 52.574219 31.335938 54.636719 30.1875 56.738281 29.308594 C 58.890625 28.398438 61.136719 27.789062 63.425781 27.484375 C 63.53125 27.46875 63.609375 27.363281 63.601562 27.246094 C 63.601562 27.195312 63.582031 27.144531 63.550781 27.109375 C 63.515625 27.078125 63.46875 27.0625 63.425781 27.074219 C 63.140625 27.109375 62.859375 27.148438 62.578125 27.195312 C 60.238281 27.582031 57.949219 28.285156 55.769531 29.292969 C 53.660156 30.265625 51.585938 31.488281 49.832031 33.113281 Z M 49.832031 33.113281 "/>
<path style=" stroke:none;fill-rule:nonzero;fill:rgb(94.901961%,94.901961%,94.901961%);fill-opacity:1;" d="M 61.738281 19.714844 C 61.738281 20.195312 61.386719 20.585938 60.953125 20.585938 C 60.519531 20.585938 60.167969 20.195312 60.167969 19.714844 C 60.167969 19.238281 60.519531 18.847656 60.953125 18.847656 C 61.386719 18.847656 61.738281 19.238281 61.738281 19.714844 Z M 61.738281 19.714844 "/>
<path style=" stroke:none;fill-rule:nonzero;fill:rgb(24.705882%,23.921569%,33.72549%);fill-opacity:1;" d="M 45.558594 63.8125 L 26.160156 63.8125 C 23.738281 63.808594 21.777344 61.644531 21.773438 58.976562 L 21.773438 4.835938 C 21.777344 2.167969 23.738281 0.00390625 26.160156 0 L 45.558594 0 C 47.980469 0.00390625 49.941406 2.167969 49.945312 4.835938 L 49.945312 58.976562 C 49.941406 61.644531 47.980469 63.808594 45.558594 63.8125 Z M 45.558594 63.8125 "/>
<path style=" stroke:none;fill-rule:nonzero;fill:rgb(100%,100%,100%);fill-opacity:1;" d="M 45.339844 1.5 L 43.183594 1.5 C 42.78125 1.5 42.457031 1.859375 42.453125 2.304688 C 42.453125 3.207031 41.789062 3.941406 40.96875 3.941406 L 30.410156 3.941406 C 29.589844 3.941406 28.925781 3.207031 28.921875 2.304688 C 28.921875 1.859375 28.597656 1.5 28.195312 1.5 L 26.292969 1.5 C 24.457031 1.503906 22.96875 3.144531 22.964844 5.167969 L 22.964844 58.925781 C 22.96875 60.949219 24.457031 62.589844 26.292969 62.59375 L 45.339844 62.59375 C 47.175781 62.589844 48.664062 60.949219 48.667969 58.925781 L 48.667969 5.167969 C 48.664062 3.144531 47.175781 1.503906 45.339844 1.5 Z M 45.339844 1.5 "/>
<path style=" stroke:none;fill-rule:nonzero;fill:rgb(100%,100%,100%);fill-opacity:1;" d="M 38.347656 2.582031 L 32.390625 2.582031 C 32.273438 2.582031 32.179688 2.476562 32.179688 2.347656 C 32.179688 2.214844 32.273438 2.113281 32.390625 2.113281 L 38.347656 2.113281 C 38.464844 2.113281 38.5625 2.214844 38.5625 2.347656 C 38.5625 2.476562 38.464844 2.582031 38.347656 2.582031 Z M 38.347656 2.582031 "/>
<path style=" stroke:none;fill-rule:nonzero;fill:rgb(100%,100%,100%);fill-opacity:1;" d="M 39.453125 2.347656 C 39.453125 2.449219 39.378906 2.535156 39.285156 2.535156 C 39.191406 2.535156 39.113281 2.449219 39.113281 2.347656 C 39.113281 2.242188 39.191406 2.160156 39.285156 2.160156 C 39.378906 2.160156 39.453125 2.242188 39.453125 2.347656 Z M 39.453125 2.347656 "/>
<path style=" stroke:none;fill-rule:nonzero;fill:rgb(24.705882%,23.921569%,33.72549%);fill-opacity:1;" d="M 50.113281 21.347656 C 49.902344 21.347656 49.730469 21.160156 49.730469 20.925781 L 49.730469 12.667969 C 49.730469 12.433594 49.902344 12.246094 50.113281 12.246094 C 50.324219 12.246094 50.496094 12.433594 50.496094 12.667969 L 50.496094 20.925781 C 50.496094 21.160156 50.324219 21.347656 50.113281 21.347656 Z M 50.113281 21.347656 "/>
<path style=" stroke:none;fill-rule:nonzero;fill:rgb(24.705882%,23.921569%,33.72549%);fill-opacity:1;" d="M 21.773438 15.25 C 21.5625 15.25 21.390625 15.058594 21.390625 14.828125 L 21.390625 12.949219 C 21.390625 12.71875 21.5625 12.527344 21.773438 12.527344 C 21.984375 12.527344 22.15625 12.71875 22.15625 12.949219 L 22.15625 14.828125 C 22.15625 15.058594 21.984375 15.25 21.773438 15.25 Z M 21.773438 15.25 "/>
<path style=" stroke:none;fill-rule:nonzero;fill:rgb(24.705882%,23.921569%,33.72549%);fill-opacity:1;" d="M 21.773438 18.722656 C 21.5625 18.722656 21.390625 18.53125 21.390625 18.300781 L 21.390625 16.421875 C 21.390625 16.1875 21.5625 16 21.773438 16 C 21.984375 16 22.15625 16.1875 22.15625 16.421875 L 22.15625 18.300781 C 22.15625 18.53125 21.984375 18.722656 21.773438 18.722656 Z M 21.773438 18.722656 "/>
<path style=" stroke:none;fill-rule:nonzero;fill:rgb(24.705882%,23.921569%,33.72549%);fill-opacity:1;" d="M 56.851562 64 L 0.0859375 64 C 0.0390625 64 0 63.957031 0 63.90625 C 0 63.855469 0.0390625 63.8125 0.0859375 63.8125 L 56.851562 63.8125 C 56.898438 63.8125 56.9375 63.855469 56.9375 63.90625 C 56.9375 63.957031 56.898438 64 56.851562 64 Z M 56.851562 64 "/>
<path style=" stroke:none;fill-rule:nonzero;fill:rgb(100%,71.372549%,71.372549%);fill-opacity:1;" d="M 5.332031 62.863281 L 6.375 62.863281 L 6.871094 58.425781 L 5.332031 58.425781 Z M 5.332031 62.863281 "/>
<path style=" stroke:none;fill-rule:nonzero;fill:rgb(18.431373%,18.039216%,25.490196%);fill-opacity:1;" d="M 5.066406 62.488281 L 7.121094 62.488281 C 7.84375 62.488281 8.429688 63.136719 8.429688 63.933594 L 8.429688 63.980469 L 5.066406 63.980469 Z M 5.066406 62.488281 "/>
<path style=" stroke:none;fill-rule:nonzero;fill:rgb(100%,71.372549%,71.372549%);fill-opacity:1;" d="M 14.949219 62.863281 L 15.992188 62.863281 L 16.488281 58.425781 L 14.949219 58.425781 Z M 14.949219 62.863281 "/>
<path style=" stroke:none;fill-rule:nonzero;fill:rgb(18.431373%,18.039216%,25.490196%);fill-opacity:1;" d="M 14.683594 62.488281 L 16.738281 62.488281 C 17.460938 62.488281 18.046875 63.136719 18.046875 63.933594 L 18.046875 63.980469 L 14.683594 63.980469 Z M 14.683594 62.488281 "/>
<path style=" stroke:none;fill-rule:nonzero;fill:rgb(100%,71.372549%,71.372549%);fill-opacity:1;" d="M 13.6875 27.214844 L 14.371094 32 L 7.902344 32.09375 L 8.753906 27.496094 Z M 13.6875 27.214844 "/>
<path style=" stroke:none;fill-rule:nonzero;fill:rgb(18.431373%,18.039216%,25.490196%);fill-opacity:1;" d="M 14.625 30.78125 L 16.242188 36.878906 L 16.496094 61.945312 L 14.753906 61.945312 L 10.582031 41.804688 L 6.753906 61.417969 L 5.050781 61.417969 L 6.242188 39.367188 C 6.242188 39.367188 5.648438 33.921875 7.6875 32.328125 L 7.6875 30.929688 Z M 14.625 30.78125 "/>
<path style=" stroke:none;fill-rule:nonzero;fill:rgb(100%,71.372549%,71.372549%);fill-opacity:1;" d="M 5.347656 35.546875 C 5.710938 35.4375 6.011719 35.15625 6.171875 34.777344 C 6.328125 34.398438 6.324219 33.960938 6.164062 33.585938 L 8.914062 23.695312 L 6.890625 23.25 L 4.375 32.945312 C 3.808594 33.296875 3.566406 34.058594 3.8125 34.722656 C 4.0625 35.386719 4.71875 35.738281 5.347656 35.546875 Z M 5.347656 35.546875 "/>
<path style=" stroke:none;fill-rule:nonzero;fill:rgb(100%,71.372549%,71.372549%);fill-opacity:1;" d="M 13.023438 12.792969 C 14.164062 14.046875 14.164062 16.085938 13.023438 17.34375 C 11.882812 18.601562 10.035156 18.601562 8.894531 17.34375 C 7.753906 16.085938 7.753906 14.046875 8.894531 12.792969 C 10.035156 11.535156 11.882812 11.535156 13.023438 12.792969 Z M 13.023438 12.792969 "/>
<path style=" stroke:none;fill-rule:nonzero;fill:rgb(89.411765%,89.411765%,89.411765%);fill-opacity:1;" d="M 8.871094 29.792969 C 8.636719 29.742188 8.460938 29.523438 8.441406 29.261719 C 8.378906 28.292969 8.0625 26.605469 7.5 24.253906 C 7.242188 23.179688 7.414062 22.03125 7.972656 21.105469 C 8.53125 20.179688 9.421875 19.558594 10.417969 19.402344 C 11.363281 19.25 12.324219 19.527344 13.082031 20.171875 C 13.839844 20.8125 14.328125 21.765625 14.4375 22.8125 C 14.714844 25.511719 14.191406 28.226562 13.953125 29.265625 C 13.894531 29.523438 13.6875 29.707031 13.445312 29.710938 L 8.984375 29.804688 C 8.949219 29.808594 8.910156 29.804688 8.871094 29.792969 Z M 8.871094 29.792969 "/>
<path style=" stroke:none;fill-rule:nonzero;fill:rgb(100%,71.372549%,71.372549%);fill-opacity:1;" d="M 21.429688 21.167969 C 21.40625 21.234375 21.382812 21.304688 21.367188 21.375 L 15.785156 23.464844 L 14.707031 22.425781 L 13.070312 24.015625 L 14.820312 26.058594 C 15.109375 26.398438 15.566406 26.484375 15.941406 26.273438 L 21.914062 22.910156 C 22.355469 23.207031 22.921875 23.175781 23.332031 22.824219 C 23.742188 22.472656 23.914062 21.882812 23.761719 21.335938 C 23.609375 20.789062 23.164062 20.402344 22.648438 20.363281 C 22.128906 20.328125 21.644531 20.648438 21.429688 21.167969 Z M 21.429688 21.167969 "/>
<path style=" stroke:none;fill-rule:nonzero;fill:rgb(89.411765%,89.411765%,89.411765%);fill-opacity:1;" d="M 15.589844 23.578125 L 13.554688 25.539062 C 13.4375 25.652344 13.28125 25.703125 13.128906 25.675781 C 12.976562 25.652344 12.835938 25.558594 12.753906 25.414062 L 11.296875 22.914062 C 10.761719 22.230469 10.832031 21.199219 11.449219 20.605469 C 12.066406 20.015625 13.003906 20.085938 13.542969 20.765625 L 15.585938 22.6875 C 15.703125 22.796875 15.773438 22.960938 15.773438 23.128906 C 15.773438 23.300781 15.707031 23.464844 15.589844 23.578125 Z M 15.589844 23.578125 "/>
<path style=" stroke:none;fill-rule:nonzero;fill:rgb(89.411765%,89.411765%,89.411765%);fill-opacity:1;" d="M 8.59375 26.226562 L 6.078125 25.136719 C 5.933594 25.074219 5.820312 24.945312 5.769531 24.785156 C 5.71875 24.621094 5.734375 24.441406 5.8125 24.292969 L 7.152344 21.71875 C 7.457031 20.878906 8.320312 20.472656 9.078125 20.804688 C 9.839844 21.136719 10.214844 22.085938 9.914062 22.925781 L 9.3125 25.808594 C 9.277344 25.976562 9.175781 26.121094 9.039062 26.199219 C 8.902344 26.277344 8.738281 26.289062 8.59375 26.226562 Z M 8.59375 26.226562 "/>
<path style=" stroke:none;fill-rule:nonzero;fill:rgb(18.431373%,18.039216%,25.490196%);fill-opacity:1;" d="M 12.308594 14.347656 C 12.945312 15.0625 13.808594 15.84375 14.667969 15.417969 C 15.230469 15.136719 15.515625 14.453125 15.425781 13.777344 C 15.273438 12.5625 14.371094 11.847656 13.496094 11.257812 C 12.355469 10.492188 11.089844 9.804688 9.753906 9.882812 C 8.421875 9.960938 7.058594 11.070312 7.03125 12.542969 C 7.007812 13.726562 7.816406 14.890625 7.472656 16.011719 C 7.121094 17.140625 5.832031 17.492188 4.75 17.472656 C 3.671875 17.449219 2.492188 17.261719 1.59375 17.925781 C 0.449219 18.769531 0.347656 20.703125 1.046875 22.015625 C 1.746094 23.324219 3.015625 24.125 4.269531 24.753906 C 5.929688 25.589844 7.773438 26.242188 9.566406 25.851562 C 11.355469 25.457031 13.007812 23.710938 12.871094 21.703125 C 12.8125 20.851562 12.457031 20.070312 12.117188 19.308594 C 11.773438 18.546875 11.429688 17.75 11.402344 16.902344 C 11.375 16.191406 11.625 15.429688 12.125 15.011719 C 12.308594 14.863281 12.386719 14.601562 12.3125 14.363281 Z M 12.308594 14.347656 "/>
<path style=" stroke:none;fill-rule:nonzero;fill:rgb(100%,100%,100%);fill-opacity:1;" d="M 48.011719 28.140625 C 47.09375 28.75 45.453125 29.511719 43.777344 28.730469 L 42.691406 28.222656 L 44.863281 25.539062 C 41.273438 21.171875 41.277344 14.515625 44.878906 10.15625 C 48.476562 5.800781 54.488281 5.171875 58.765625 8.707031 C 63.042969 12.242188 64.179688 18.78125 61.398438 23.8125 C 58.613281 28.84375 52.820312 30.71875 48.011719 28.140625 Z M 48.011719 28.140625 "/>
<path style=" stroke:none;fill-rule:nonzero;fill:rgb(42.352941%,38.823529%,100%);fill-opacity:1;" d="M 48.019531 28.285156 C 47.132812 28.859375 45.449219 29.652344 43.730469 28.847656 L 42.5 28.269531 L 44.707031 25.539062 C 40.871094 20.777344 41.246094 13.488281 45.550781 9.242188 C 49.855469 4.992188 56.46875 5.382812 60.335938 10.117188 C 64.203125 14.851562 63.867188 22.140625 59.589844 26.421875 C 56.441406 29.589844 51.859375 30.328125 48.019531 28.285156 Z M 60.140625 10.261719 C 56.335938 5.632812 49.847656 5.28125 45.652344 9.476562 C 41.457031 13.675781 41.140625 20.828125 44.949219 25.453125 L 45.019531 25.539062 L 42.886719 28.175781 L 43.820312 28.613281 C 45.480469 29.386719 47.121094 28.582031 47.953125 28.03125 L 48.007812 27.996094 L 48.0625 28.027344 C 52.484375 30.394531 57.804688 28.972656 60.75 24.636719 C 63.695312 20.304688 63.441406 14.273438 60.140625 10.261719 Z M 60.140625 10.261719 "/>
<use xlink:href="#surface5" mask="url(#mask0)"/>
<path style=" stroke:none;fill-rule:nonzero;fill:rgb(42.352941%,38.823529%,100%);fill-opacity:1;" d="M 47.074219 15.6875 L 53.890625 15.6875 L 53.890625 16.386719 L 47.074219 16.386719 Z M 47.074219 15.6875 "/>
<path style=" stroke:none;fill-rule:nonzero;fill:rgb(42.352941%,38.823529%,100%);fill-opacity:1;" d="M 47.074219 18.101562 L 58.957031 18.101562 L 58.957031 18.800781 L 47.074219 18.800781 Z M 47.074219 18.101562 "/>
<path style=" stroke:none;fill-rule:nonzero;fill:rgb(42.352941%,38.823529%,100%);fill-opacity:1;" d="M 47.074219 20.519531 L 58.945312 20.519531 L 58.945312 21.214844 L 47.074219 21.214844 Z M 47.074219 20.519531 "/>
<path style=" stroke:none;fill-rule:nonzero;fill:rgb(100%,100%,100%);fill-opacity:1;" d="M 26.527344 45.9375 C 23.820312 43.230469 23.617188 38.617188 26.070312 35.632812 C 28.527344 32.652344 32.707031 32.425781 35.414062 35.132812 C 38.121094 37.839844 38.324219 42.449219 35.871094 45.433594 L 37.253906 47.144531 L 36.5625 47.46875 C 35.496094 47.96875 34.449219 47.484375 33.863281 47.09375 C 31.433594 48.394531 28.527344 47.9375 26.527344 45.9375 Z M 26.527344 45.9375 "/>
<path style=" stroke:none;fill-rule:nonzero;fill:rgb(42.352941%,38.823529%,100%);fill-opacity:1;" d="M 30.960938 47.914062 C 29.304688 47.914062 27.703125 47.230469 26.476562 45.996094 C 23.746094 43.265625 23.535156 38.617188 26 35.597656 C 28.46875 32.578125 32.683594 32.328125 35.429688 35.039062 C 38.175781 37.75 38.417969 42.398438 35.96875 45.433594 L 37.378906 47.175781 L 36.59375 47.542969 C 35.496094 48.058594 34.421875 47.550781 33.859375 47.1875 C 32.953125 47.664062 31.964844 47.914062 30.960938 47.914062 Z M 26.578125 45.875 C 28.550781 47.863281 31.429688 48.316406 33.828125 47.019531 L 33.867188 47.003906 L 33.898438 47.023438 C 34.429688 47.375 35.476562 47.890625 36.535156 47.394531 L 37.132812 47.117188 L 35.769531 45.433594 L 35.816406 45.378906 C 38.242188 42.429688 38.039062 37.867188 35.363281 35.191406 C 32.6875 32.515625 28.550781 32.738281 26.125 35.6875 C 23.699219 38.640625 23.902344 43.199219 26.578125 45.875 Z M 26.578125 45.875 "/>
<use xlink:href="#surface8" mask="url(#mask1)"/>
<path style=" stroke:none;fill-rule:nonzero;fill:rgb(42.352941%,38.823529%,100%);fill-opacity:1;" d="M 30.113281 39.152344 L 34.460938 39.152344 L 34.460938 39.597656 L 30.113281 39.597656 Z M 30.113281 39.152344 "/>
<path style=" stroke:none;fill-rule:nonzero;fill:rgb(42.352941%,38.823529%,100%);fill-opacity:1;" d="M 26.878906 40.691406 L 34.460938 40.691406 L 34.460938 41.136719 L 26.878906 41.136719 Z M 26.878906 40.691406 "/>
<path style=" stroke:none;fill-rule:nonzero;fill:rgb(42.352941%,38.823529%,100%);fill-opacity:1;" d="M 26.886719 42.230469 L 34.460938 42.230469 L 34.460938 42.675781 L 26.886719 42.675781 Z M 26.886719 42.230469 "/>
<path style=" stroke:none;fill-rule:nonzero;fill:rgb(42.352941%,38.823529%,100%);fill-opacity:1;" d="M 40.371094 47.777344 C 40.371094 48.347656 39.953125 48.808594 39.433594 48.808594 C 38.917969 48.808594 38.5 48.347656 38.5 47.777344 C 38.5 47.207031 38.917969 46.746094 39.433594 46.746094 C 39.953125 46.746094 40.371094 47.207031 40.371094 47.777344 Z M 40.371094 47.777344 "/>
<path style=" stroke:none;fill-rule:nonzero;fill:rgb(42.352941%,38.823529%,100%);fill-opacity:1;" d="M 41.902344 28.539062 C 41.902344 29.214844 41.40625 29.761719 40.796875 29.761719 C 40.183594 29.761719 39.691406 29.214844 39.691406 28.539062 C 39.691406 27.867188 40.183594 27.320312 40.796875 27.320312 C 41.40625 27.320312 41.902344 27.867188 41.902344 28.539062 Z M 41.902344 28.539062 "/>
</g>
</svg>
