<?xml version="1.0" encoding="UTF-8"?>
<svg xmlns="http://www.w3.org/2000/svg" xmlns:xlink="http://www.w3.org/1999/xlink" width="64pt" height="56pt" viewBox="0 0 64 56" version="1.1">
<g id="surface1">
<path style=" stroke:none;fill-rule:nonzero;fill:rgb(94.509804%,94.509804%,94.509804%);fill-opacity:1;" d="M 55.757812 53.972656 L 55.757812 48.421875 C 55.757812 48.421875 57.929688 52.359375 55.757812 53.972656 Z M 55.757812 53.972656 "/>
<path style=" stroke:none;fill-rule:nonzero;fill:rgb(94.509804%,94.509804%,94.509804%);fill-opacity:1;" d="M 55.890625 53.972656 L 51.789062 50.21875 C 51.789062 50.21875 56.164062 51.285156 55.890625 53.972656 Z M 55.890625 53.972656 "/>
<path style=" stroke:none;fill-rule:nonzero;fill:rgb(94.509804%,94.509804%,94.509804%);fill-opacity:1;" d="M 8.199219 53.972656 L 8.199219 48.421875 C 8.199219 48.421875 6.027344 52.359375 8.199219 53.972656 Z M 8.199219 53.972656 "/>
<path style=" stroke:none;fill-rule:nonzero;fill:rgb(94.509804%,94.509804%,94.509804%);fill-opacity:1;" d="M 8.066406 53.972656 L 12.167969 50.21875 C 12.167969 50.21875 7.792969 51.285156 8.066406 53.972656 Z M 8.066406 53.972656 "/>
<path style=" stroke:none;fill-rule:nonzero;fill:rgb(24.705882%,23.921569%,33.72549%);fill-opacity:1;" d="M 45.496094 12.816406 L 45.199219 12.816406 L 45.199219 4.699219 C 45.199219 2.101562 43.089844 0 40.484375 0 L 23.21875 0 C 20.613281 0 18.503906 2.101562 18.503906 4.699219 L 18.503906 49.226562 C 18.503906 51.820312 20.613281 53.925781 23.21875 53.925781 L 40.484375 53.925781 C 43.089844 53.925781 45.199219 51.820312 45.199219 49.226562 L 45.199219 18.59375 L 45.496094 18.59375 Z M 45.496094 12.816406 "/>
<path style=" stroke:none;fill-rule:nonzero;fill:rgb(100%,100%,100%);fill-opacity:1;" d="M 40.675781 1.222656 L 38.421875 1.222656 C 38.628906 1.734375 38.570312 2.320312 38.257812 2.78125 C 37.949219 3.242188 37.429688 3.519531 36.871094 3.519531 L 26.980469 3.519531 C 26.421875 3.519531 25.902344 3.242188 25.589844 2.78125 C 25.28125 2.320312 25.21875 1.734375 25.429688 1.222656 L 23.324219 1.222656 C 21.382812 1.222656 19.804688 2.792969 19.804688 4.730469 L 19.804688 49.195312 C 19.804688 51.132812 21.382812 52.703125 23.324219 52.703125 L 40.675781 52.703125 C 42.617188 52.703125 44.195312 51.132812 44.195312 49.195312 L 44.195312 4.730469 C 44.195312 2.792969 42.617188 1.222656 40.675781 1.222656 Z M 40.675781 1.222656 "/>
<path style=" stroke:none;fill-rule:nonzero;fill:rgb(89.803922%,89.803922%,89.803922%);fill-opacity:1;" d="M 40.238281 51.941406 L 23.761719 51.941406 C 21.867188 51.941406 20.328125 50.570312 20.328125 48.886719 L 20.328125 46.675781 C 20.328125 45.335938 21.554688 44.242188 23.0625 44.242188 L 40.9375 44.242188 C 42.445312 44.242188 43.671875 45.335938 43.671875 46.675781 L 43.671875 48.886719 C 43.671875 50.570312 42.132812 51.941406 40.238281 51.941406 Z M 40.238281 51.941406 "/>
<path style=" stroke:none;fill-rule:nonzero;fill:rgb(42.352941%,38.823529%,100%);fill-opacity:1;" d="M 25.492188 14.792969 L 21.816406 14.792969 C 21.679688 14.792969 21.570312 14.683594 21.570312 14.546875 L 21.570312 10.886719 C 21.570312 10.75 21.679688 10.636719 21.816406 10.636719 L 25.492188 10.636719 C 25.628906 10.636719 25.742188 10.75 25.742188 10.886719 L 25.742188 14.546875 C 25.742188 14.683594 25.628906 14.792969 25.492188 14.792969 Z M 25.492188 14.792969 "/>
<path style=" stroke:none;fill-rule:nonzero;fill:rgb(89.803922%,89.803922%,89.803922%);fill-opacity:1;" d="M 31.054688 14.792969 L 27.378906 14.792969 C 27.242188 14.792969 27.132812 14.683594 27.132812 14.546875 L 27.132812 10.886719 C 27.132812 10.75 27.242188 10.636719 27.378906 10.636719 L 31.054688 10.636719 C 31.191406 10.636719 31.304688 10.75 31.304688 10.886719 L 31.304688 14.546875 C 31.304688 14.683594 31.191406 14.792969 31.054688 14.792969 Z M 31.054688 14.792969 "/>
<path style=" stroke:none;fill-rule:nonzero;fill:rgb(89.803922%,89.803922%,89.803922%);fill-opacity:1;" d="M 36.621094 14.792969 L 32.945312 14.792969 C 32.808594 14.792969 32.695312 14.683594 32.695312 14.546875 L 32.695312 10.886719 C 32.695312 10.75 32.808594 10.636719 32.945312 10.636719 L 36.621094 10.636719 C 36.757812 10.636719 36.867188 10.75 36.867188 10.886719 L 36.867188 14.546875 C 36.867188 14.683594 36.757812 14.792969 36.621094 14.792969 Z M 36.621094 14.792969 "/>
<path style=" stroke:none;fill-rule:nonzero;fill:rgb(89.803922%,89.803922%,89.803922%);fill-opacity:1;" d="M 42.183594 14.792969 L 38.507812 14.792969 C 38.371094 14.792969 38.257812 14.683594 38.257812 14.546875 L 38.257812 10.886719 C 38.257812 10.75 38.371094 10.636719 38.507812 10.636719 L 42.183594 10.636719 C 42.320312 10.636719 42.429688 10.75 42.429688 10.886719 L 42.429688 14.546875 C 42.429688 14.683594 42.320312 14.792969 42.183594 14.792969 Z M 42.183594 14.792969 "/>
<path style=" stroke:none;fill-rule:nonzero;fill:rgb(89.803922%,89.803922%,89.803922%);fill-opacity:1;" d="M 25.480469 21.570312 L 21.804688 21.570312 C 21.667969 21.570312 21.554688 21.460938 21.554688 21.324219 L 21.554688 17.664062 C 21.554688 17.527344 21.667969 17.417969 21.804688 17.414062 L 25.480469 17.414062 C 25.617188 17.417969 25.726562 17.527344 25.726562 17.664062 L 25.726562 21.324219 C 25.726562 21.460938 25.617188 21.570312 25.480469 21.570312 Z M 25.480469 21.570312 "/>
<path style=" stroke:none;fill-rule:nonzero;fill:rgb(89.803922%,89.803922%,89.803922%);fill-opacity:1;" d="M 31.042969 21.570312 L 27.367188 21.570312 C 27.230469 21.570312 27.117188 21.460938 27.117188 21.324219 L 27.117188 17.664062 C 27.117188 17.527344 27.230469 17.417969 27.367188 17.414062 L 31.042969 17.414062 C 31.179688 17.417969 31.292969 17.527344 31.292969 17.664062 L 31.292969 21.324219 C 31.292969 21.460938 31.179688 21.570312 31.042969 21.570312 Z M 31.042969 21.570312 "/>
<path style=" stroke:none;fill-rule:nonzero;fill:rgb(42.352941%,38.823529%,100%);fill-opacity:1;" d="M 36.605469 21.570312 L 32.929688 21.570312 C 32.792969 21.570312 32.683594 21.460938 32.683594 21.324219 L 32.683594 17.664062 C 32.683594 17.527344 32.792969 17.417969 32.929688 17.414062 L 36.605469 17.414062 C 36.742188 17.417969 36.855469 17.527344 36.855469 17.664062 L 36.855469 21.324219 C 36.855469 21.460938 36.742188 21.570312 36.605469 21.570312 Z M 36.605469 21.570312 "/>
<path style=" stroke:none;fill-rule:nonzero;fill:rgb(42.352941%,38.823529%,100%);fill-opacity:1;" d="M 42.167969 21.570312 L 38.492188 21.570312 C 38.355469 21.570312 38.246094 21.460938 38.246094 21.324219 L 38.246094 17.664062 C 38.246094 17.527344 38.355469 17.417969 38.492188 17.414062 L 42.167969 17.414062 C 42.308594 17.417969 42.417969 17.527344 42.417969 17.664062 L 42.417969 21.324219 C 42.417969 21.460938 42.308594 21.570312 42.167969 21.570312 Z M 42.167969 21.570312 "/>
<path style=" stroke:none;fill-rule:nonzero;fill:rgb(89.803922%,89.803922%,89.803922%);fill-opacity:1;" d="M 25.464844 28.351562 L 21.789062 28.351562 C 21.652344 28.351562 21.542969 28.238281 21.542969 28.101562 L 21.542969 24.441406 C 21.542969 24.304688 21.652344 24.195312 21.789062 24.195312 L 25.464844 24.195312 C 25.605469 24.195312 25.714844 24.304688 25.714844 24.441406 L 25.714844 28.101562 C 25.714844 28.238281 25.605469 28.351562 25.464844 28.351562 Z M 25.464844 28.351562 "/>
<path style=" stroke:none;fill-rule:nonzero;fill:rgb(89.803922%,89.803922%,89.803922%);fill-opacity:1;" d="M 31.03125 28.351562 L 27.355469 28.351562 C 27.21875 28.351562 27.105469 28.238281 27.105469 28.101562 L 27.105469 24.441406 C 27.105469 24.304688 27.21875 24.195312 27.355469 24.195312 L 31.03125 24.195312 C 31.167969 24.195312 31.277344 24.304688 31.277344 24.441406 L 31.277344 28.101562 C 31.277344 28.238281 31.167969 28.351562 31.03125 28.351562 Z M 31.03125 28.351562 "/>
<path style=" stroke:none;fill-rule:nonzero;fill:rgb(89.803922%,89.803922%,89.803922%);fill-opacity:1;" d="M 36.59375 28.351562 L 32.917969 28.351562 C 32.78125 28.351562 32.667969 28.238281 32.667969 28.101562 L 32.667969 24.441406 C 32.667969 24.304688 32.78125 24.195312 32.917969 24.195312 L 36.59375 24.195312 C 36.730469 24.195312 36.839844 24.304688 36.839844 24.441406 L 36.839844 28.101562 C 36.839844 28.238281 36.730469 28.351562 36.59375 28.351562 Z M 36.59375 28.351562 "/>
<path style=" stroke:none;fill-rule:nonzero;fill:rgb(89.803922%,89.803922%,89.803922%);fill-opacity:1;" d="M 42.15625 28.351562 L 38.480469 28.351562 C 38.34375 28.351562 38.234375 28.238281 38.234375 28.101562 L 38.234375 24.441406 C 38.234375 24.304688 38.34375 24.195312 38.480469 24.195312 L 42.15625 24.195312 C 42.292969 24.195312 42.40625 24.304688 42.40625 24.441406 L 42.40625 28.101562 C 42.40625 28.238281 42.292969 28.351562 42.15625 28.351562 Z M 42.15625 28.351562 "/>
<path style=" stroke:none;fill-rule:nonzero;fill:rgb(89.803922%,89.803922%,89.803922%);fill-opacity:1;" d="M 25.453125 35.128906 L 21.777344 35.128906 C 21.640625 35.128906 21.53125 35.019531 21.53125 34.882812 L 21.53125 31.21875 C 21.53125 31.082031 21.640625 30.972656 21.777344 30.972656 L 25.453125 30.972656 C 25.589844 30.972656 25.703125 31.082031 25.703125 31.21875 L 25.703125 34.882812 C 25.703125 35.019531 25.589844 35.128906 25.453125 35.128906 Z M 25.453125 35.128906 "/>
<path style=" stroke:none;fill-rule:nonzero;fill:rgb(89.803922%,89.803922%,89.803922%);fill-opacity:1;" d="M 31.015625 35.128906 L 27.339844 35.128906 C 27.203125 35.128906 27.09375 35.019531 27.09375 34.882812 L 27.09375 31.21875 C 27.09375 31.082031 27.203125 30.972656 27.339844 30.972656 L 31.015625 30.972656 C 31.152344 30.972656 31.265625 31.082031 31.265625 31.21875 L 31.265625 34.882812 C 31.265625 35.019531 31.152344 35.128906 31.015625 35.128906 Z M 31.015625 35.128906 "/>
<path style=" stroke:none;fill-rule:nonzero;fill:rgb(89.803922%,89.803922%,89.803922%);fill-opacity:1;" d="M 36.582031 35.128906 L 32.90625 35.128906 C 32.765625 35.128906 32.65625 35.019531 32.65625 34.882812 L 32.65625 31.21875 C 32.65625 31.082031 32.765625 30.972656 32.90625 30.972656 L 36.582031 30.972656 C 36.71875 30.972656 36.828125 31.082031 36.828125 31.21875 L 36.828125 34.882812 C 36.828125 35.019531 36.71875 35.128906 36.582031 35.128906 Z M 36.582031 35.128906 "/>
<path style=" stroke:none;fill-rule:nonzero;fill:rgb(89.803922%,89.803922%,89.803922%);fill-opacity:1;" d="M 42.144531 35.128906 L 38.46875 35.128906 C 38.332031 35.128906 38.21875 35.019531 38.21875 34.882812 L 38.21875 31.21875 C 38.21875 31.082031 38.332031 30.972656 38.46875 30.972656 L 42.144531 30.972656 C 42.28125 30.972656 42.390625 31.082031 42.390625 31.21875 L 42.390625 34.882812 C 42.390625 35.019531 42.28125 35.128906 42.144531 35.128906 Z M 42.144531 35.128906 "/>
<path style=" stroke:none;fill-rule:nonzero;fill:rgb(100%,100%,100%);fill-opacity:1;" d="M 25.492188 50.269531 L 21.816406 50.269531 C 21.679688 50.269531 21.570312 50.15625 21.570312 50.019531 L 21.570312 46.359375 C 21.570312 46.222656 21.679688 46.113281 21.816406 46.113281 L 25.492188 46.113281 C 25.628906 46.113281 25.742188 46.222656 25.742188 46.359375 L 25.742188 50.019531 C 25.742188 50.15625 25.628906 50.269531 25.492188 50.269531 Z M 25.492188 50.269531 "/>
<path style=" stroke:none;fill-rule:nonzero;fill:rgb(100%,100%,100%);fill-opacity:1;" d="M 31.054688 50.269531 L 27.378906 50.269531 C 27.242188 50.269531 27.132812 50.15625 27.132812 50.019531 L 27.132812 46.359375 C 27.132812 46.222656 27.242188 46.113281 27.378906 46.113281 L 31.054688 46.113281 C 31.191406 46.113281 31.304688 46.222656 31.304688 46.359375 L 31.304688 50.019531 C 31.304688 50.15625 31.191406 50.269531 31.054688 50.269531 Z M 31.054688 50.269531 "/>
<path style=" stroke:none;fill-rule:nonzero;fill:rgb(100%,100%,100%);fill-opacity:1;" d="M 36.621094 50.269531 L 32.945312 50.269531 C 32.808594 50.269531 32.695312 50.15625 32.695312 50.019531 L 32.695312 46.359375 C 32.695312 46.222656 32.808594 46.113281 32.945312 46.113281 L 36.621094 46.113281 C 36.757812 46.113281 36.867188 46.222656 36.867188 46.359375 L 36.867188 50.019531 C 36.867188 50.15625 36.757812 50.269531 36.621094 50.269531 Z M 36.621094 50.269531 "/>
<path style=" stroke:none;fill-rule:nonzero;fill:rgb(100%,100%,100%);fill-opacity:1;" d="M 42.183594 50.269531 L 38.507812 50.269531 C 38.371094 50.269531 38.257812 50.15625 38.257812 50.019531 L 38.257812 46.359375 C 38.257812 46.222656 38.371094 46.113281 38.507812 46.113281 L 42.183594 46.113281 C 42.320312 46.113281 42.429688 46.222656 42.429688 46.359375 L 42.429688 50.019531 C 42.429688 50.15625 42.320312 50.269531 42.183594 50.269531 Z M 42.183594 50.269531 "/>
<path style=" stroke:none;fill-rule:nonzero;fill:rgb(89.803922%,89.803922%,89.803922%);fill-opacity:1;" d="M 30.695312 42.054688 C 30.695312 42.328125 30.472656 42.550781 30.199219 42.550781 C 29.925781 42.550781 29.703125 42.328125 29.703125 42.054688 C 29.703125 41.78125 29.925781 41.5625 30.199219 41.5625 C 30.472656 41.5625 30.695312 41.78125 30.695312 42.054688 Z M 30.695312 42.054688 "/>
<path style=" stroke:none;fill-rule:nonzero;fill:rgb(89.803922%,89.803922%,89.803922%);fill-opacity:1;" d="M 32.484375 42.054688 C 32.484375 42.328125 32.261719 42.550781 31.988281 42.550781 C 31.710938 42.550781 31.488281 42.328125 31.488281 42.054688 C 31.488281 41.78125 31.710938 41.5625 31.988281 41.5625 C 32.261719 41.5625 32.484375 41.78125 32.484375 42.054688 Z M 32.484375 42.054688 "/>
<path style=" stroke:none;fill-rule:nonzero;fill:rgb(89.803922%,89.803922%,89.803922%);fill-opacity:1;" d="M 34.273438 42.054688 C 34.273438 42.328125 34.050781 42.550781 33.773438 42.550781 C 33.5 42.550781 33.277344 42.328125 33.277344 42.054688 C 33.277344 41.78125 33.5 41.5625 33.773438 41.5625 C 34.050781 41.5625 34.273438 41.78125 34.273438 42.054688 Z M 34.273438 42.054688 "/>
<path style=" stroke:none;fill-rule:nonzero;fill:rgb(79.607843%,79.607843%,79.607843%);fill-opacity:1;" d="M 63.921875 54.003906 L 0.078125 54.003906 C 0.0351562 54.003906 0 53.972656 0 53.929688 C 0 53.886719 0.0351562 53.851562 0.078125 53.851562 L 63.921875 53.851562 C 63.964844 53.851562 64 53.886719 64 53.929688 C 64 53.972656 63.964844 54.003906 63.921875 54.003906 Z M 63.921875 54.003906 "/>
<path style=" stroke:none;fill-rule:nonzero;fill:rgb(100%,71.764706%,71.764706%);fill-opacity:1;" d="M 25.136719 38.902344 C 25.34375 38.691406 25.453125 38.398438 25.425781 38.105469 C 25.398438 37.808594 25.242188 37.542969 25 37.371094 L 25.96875 33.949219 L 24.199219 34.507812 L 23.550781 37.671875 C 23.285156 38.109375 23.390625 38.675781 23.796875 38.988281 C 24.199219 39.300781 24.773438 39.265625 25.136719 38.902344 Z M 25.136719 38.902344 "/>
<path style=" stroke:none;fill-rule:nonzero;fill:rgb(24.705882%,23.921569%,33.72549%);fill-opacity:1;" d="M 25.636719 36.800781 C 25.605469 36.808594 25.574219 36.8125 25.542969 36.8125 L 23.84375 36.777344 C 23.714844 36.773438 23.59375 36.714844 23.511719 36.617188 C 23.425781 36.519531 23.390625 36.390625 23.410156 36.261719 L 25.128906 24.679688 C 25.238281 23.988281 25.832031 23.476562 26.535156 23.476562 C 26.972656 23.476562 27.382812 23.675781 27.652344 24.019531 C 27.917969 24.359375 28.015625 24.804688 27.910156 25.226562 L 26.691406 30.148438 L 26 36.410156 C 25.976562 36.605469 25.832031 36.765625 25.636719 36.800781 Z M 25.636719 36.800781 "/>
<path style=" stroke:none;fill-rule:nonzero;fill:rgb(100%,71.764706%,71.764706%);fill-opacity:1;" d="M 26.347656 55.085938 L 27.292969 55.085938 L 27.742188 51.460938 L 26.347656 51.460938 Z M 26.347656 55.085938 "/>
<path style=" stroke:none;fill-rule:nonzero;fill:rgb(18.431373%,18.039216%,25.490196%);fill-opacity:1;" d="M 26.105469 54.78125 L 27.964844 54.78125 C 28.621094 54.78125 29.152344 55.308594 29.152344 55.960938 L 29.152344 56 L 26.105469 56 Z M 26.105469 54.78125 "/>
<path style=" stroke:none;fill-rule:nonzero;fill:rgb(100%,71.764706%,71.764706%);fill-opacity:1;" d="M 30.375 54.78125 L 31.3125 54.886719 L 32.164062 51.332031 L 30.78125 51.175781 Z M 30.375 54.78125 "/>
<path style=" stroke:none;fill-rule:nonzero;fill:rgb(18.431373%,18.039216%,25.490196%);fill-opacity:1;" d="M 30.167969 54.449219 L 32.015625 54.65625 C 32.667969 54.730469 33.136719 55.3125 33.0625 55.960938 L 33.058594 56 L 30.03125 55.660156 Z M 30.167969 54.449219 "/>
<path style=" stroke:none;fill-rule:nonzero;fill:rgb(18.431373%,18.039216%,25.490196%);fill-opacity:1;" d="M 25.460938 34.902344 C 25.460938 34.902344 24.167969 37.753906 25.308594 39.609375 L 25.992188 54.042969 L 27.554688 54.042969 L 29.070312 42.382812 L 31.765625 45.835938 L 30.125 53.890625 L 32.039062 54 L 34.695312 45.835938 C 34.695312 45.835938 32.652344 36.832031 31.980469 36.617188 L 31.535156 34.558594 Z M 25.460938 34.902344 "/>
<path style=" stroke:none;fill-rule:nonzero;fill:rgb(79.607843%,79.607843%,79.607843%);fill-opacity:1;" d="M 24.886719 37.40625 C 24.886719 37.40625 23.71875 38.738281 26.800781 39.199219 C 29.878906 39.660156 33.113281 38.96875 33.191406 38.050781 C 33.269531 37.128906 24.886719 37.40625 24.886719 37.40625 Z M 24.886719 37.40625 "/>
<path style=" stroke:none;fill-rule:nonzero;fill:rgb(100%,71.764706%,71.764706%);fill-opacity:1;" d="M 40.328125 20.871094 C 40.320312 21.132812 40.191406 21.378906 39.984375 21.539062 C 39.773438 21.703125 39.503906 21.761719 39.246094 21.707031 L 38.082031 23.378906 L 36.886719 22.921875 L 38.566406 20.585938 C 38.691406 20.148438 39.125 19.875 39.574219 19.949219 C 40.023438 20.019531 40.347656 20.417969 40.328125 20.871094 Z M 40.328125 20.871094 "/>
<path style=" stroke:none;fill-rule:nonzero;fill:rgb(24.705882%,23.921569%,33.72549%);fill-opacity:1;" d="M 30.480469 23.023438 L 28.832031 22.28125 L 26.722656 22.429688 C 26.722656 22.429688 24.179688 25.390625 25.183594 28.230469 L 24.566406 38.125 C 28.492188 39.199219 30.28125 37.1875 33.113281 38.050781 L 32.238281 27.050781 Z M 30.480469 23.023438 "/>
<path style=" stroke:none;fill-rule:nonzero;fill:rgb(24.705882%,23.921569%,33.72549%);fill-opacity:1;" d="M 29.378906 23.742188 L 30.480469 23.023438 C 30.480469 23.023438 32.007812 22.792969 32.621094 23.382812 C 32.621094 23.382812 34.691406 23.554688 35.195312 24.070312 L 35.746094 24.195312 L 37.578125 21.832031 L 38.699219 22.4375 L 37.082031 26.8125 L 32.238281 27.050781 Z M 29.378906 23.742188 "/>
<path style=" stroke:none;fill-rule:nonzero;fill:rgb(100%,71.764706%,71.764706%);fill-opacity:1;" d="M 30.792969 17.933594 C 31.480469 19.1875 31.019531 20.761719 29.757812 21.449219 C 28.5 22.132812 26.921875 21.671875 26.230469 20.417969 C 25.542969 19.164062 26.007812 17.589844 27.265625 16.90625 C 28.527344 16.21875 30.105469 16.679688 30.792969 17.933594 Z M 30.792969 17.933594 "/>
<path style=" stroke:none;fill-rule:nonzero;fill:rgb(18.431373%,18.039216%,25.490196%);fill-opacity:1;" d="M 26.265625 17.152344 C 26.730469 16.320312 27.308594 15.785156 28.261719 15.804688 C 29.21875 15.820312 30.042969 15.785156 30.472656 16.632812 C 30.585938 16.421875 30.644531 16.183594 30.636719 15.945312 C 30.902344 16.117188 31.039062 16.429688 30.988281 16.738281 C 31.15625 16.640625 31.265625 16.460938 31.273438 16.265625 C 31.589844 16.371094 31.675781 16.820312 31.511719 17.113281 C 31.351562 17.40625 31.035156 17.574219 30.730469 17.71875 C 30.429688 17.863281 30.570312 18.621094 30.371094 18.890625 C 30.234375 19.078125 30.167969 19.308594 30.078125 19.523438 C 30.074219 19.53125 30.066406 19.539062 30.058594 19.542969 C 29.84375 19.660156 29.710938 19.875 29.746094 20.113281 C 29.75 20.132812 29.75 20.152344 29.742188 20.167969 C 29.472656 20.675781 29.183594 21.207031 28.691406 21.507812 C 28.296875 21.746094 27.828125 21.816406 27.382812 21.710938 C 26.878906 21.59375 26.445312 21.261719 26.136719 20.851562 C 25.824219 20.445312 25.621094 19.964844 25.472656 19.472656 C 25.335938 19.039062 25.238281 18.574219 25.347656 18.128906 C 25.453125 17.6875 25.8125 17.277344 26.265625 17.242188 "/>
</g>
</svg>
